solid Beach Spade
facet normal 0.0 0.0 -1.0
  outer loop
    vertex 69.15955822599275 51.01723191641532 -0.4999999999999998
    vertex 69.60955822599279 47.63973284165602 -0.4999999999999998
    vertex 69.60955822599274 36.26467104098905 -0.4999999999999998
  endloop
endfacet
facet normal 0.0 0.0 -1.0
  outer loop
    vertex 69.60955822599279 47.63973284165602 -0.4999999999999998
    vertex 69.15955822599275 51.01723191641532 -0.4999999999999998
    vertex 70.10016395009292 51.40684356418334 -0.4999999999999998
  endloop
endfacet
facet normal 0.0 0.0 -1.0
  outer loop
    vertex 69.60955822599279 47.63973284165602 -0.4999999999999998
    vertex 70.10016395009292 51.40684356418334 -0.4999999999999998
    vertex 69.66066948655914 48.02796140930981 -0.4999999999999998
  endloop
endfacet
facet normal 0.0 0.0 -1.0
  outer loop
    vertex 69.66066948655914 48.02796140930981 -0.4999999999999998
    vertex 70.10016395009292 51.40684356418334 -0.4999999999999998
    vertex 69.81052012031608 48.38973284165601 -0.4999999999999998
  endloop
endfacet
facet normal 0.0 0.0 -1.0
  outer loop
    vertex 69.81052012031608 48.38973284165601 -0.4999999999999998
    vertex 70.10016395009292 51.40684356418334 -0.4999999999999998
    vertex 70.0488980542129 48.70039301343585 -0.4999999999999998
  endloop
endfacet
facet normal 0.0 0.0 -1.0
  outer loop
    vertex 70.0488980542129 48.70039301343585 -0.4999999999999998
    vertex 70.10016395009292 51.40684356418334 -0.4999999999999998
    vertex 70.35955822599277 48.93877094733268 -0.4999999999999998
  endloop
endfacet
facet normal 0.0 0.0 -1.0
  outer loop
    vertex 70.35955822599277 48.93877094733268 -0.4999999999999998
    vertex 70.10016395009292 51.40684356418334 -0.4999999999999998
    vertex 71.10955822599271 51.539732841656026 -0.4999999999999998
  endloop
endfacet
facet normal 0.0 0.0 -1.0
  outer loop
    vertex 70.35955822599277 48.93877094733268 -0.4999999999999998
    vertex 71.10955822599271 51.539732841656026 -0.4999999999999998
    vertex 70.72132965833892 49.08862158108961 -0.4999999999999998
  endloop
endfacet
facet normal 0.0 0.0 -1.0
  outer loop
    vertex 70.72132965833892 49.08862158108961 -0.4999999999999998
    vertex 71.10955822599271 51.539732841656026 -0.4999999999999998
    vertex 71.10955822599271 49.139732841656006 -0.4999999999999998
  endloop
endfacet
facet normal 0.0 0.0 -1.0
  outer loop
    vertex 71.10955822599271 49.139732841656006 -0.4999999999999998
    vertex 71.10955822599271 51.539732841656026 -0.4999999999999998
    vertex 77.08406040946932 51.539732841656026 -0.4999999999999998
  endloop
endfacet
facet normal 0.0 0.0 -1.0
  outer loop
    vertex 71.10955822599271 49.139732841656006 -0.4999999999999998
    vertex 77.08406040946932 51.539732841656026 -0.4999999999999998
    vertex 76.18406040946932 49.139732841656006 -0.4999999999999998
  endloop
endfacet
facet normal 0.0 0.0 -1.0
  outer loop
    vertex 76.18406040946932 49.139732841656006 -0.4999999999999998
    vertex 77.08406040946932 51.539732841656026 -0.4999999999999998
    vertex 76.18406040946932 41.95220194132251 -0.4999999999999998
  endloop
endfacet
facet normal 0.0 0.0 -1.0
  outer loop
    vertex 76.18406040946932 41.95220194132251 -0.4999999999999998
    vertex 77.08406040946932 51.539732841656026 -0.4999999999999998
    vertex 76.18406040946932 34.764671040989 -0.4999999999999998
  endloop
endfacet
facet normal 0.0 0.0 -1.0
  outer loop
    vertex 67.34244750346535 48.64912711755585 -0.4999999999999998
    vertex 67.20955822599277 43.45370384165604 -0.4999999999999998
    vertex 67.20955822599277 47.63973284165602 -0.4999999999999998
  endloop
endfacet
facet normal 0.0 0.0 -1.0
  outer loop
    vertex 67.20955822599277 43.45370384165604 -0.4999999999999998
    vertex 67.34244750346535 48.64912711755585 -0.4999999999999998
    vertex 67.20955822599277 40.45370384165602 -0.4999999999999998
  endloop
endfacet
facet normal 0.0 0.0 -1.0
  outer loop
    vertex 67.20955822599277 40.45370384165602 -0.4999999999999998
    vertex 67.34244750346535 48.64912711755585 -0.4999999999999998
    vertex 67.34244750346534 35.25527676508918 -0.4999999999999998
  endloop
endfacet
facet normal 0.0 0.0 -1.0
  outer loop
    vertex 67.34244750346534 35.25527676508918 -0.4999999999999998
    vertex 67.34244750346535 48.64912711755585 -0.4999999999999998
    vertex 67.73205915123341 34.314671040989 -0.4999999999999998
  endloop
endfacet
facet normal 0.0 0.0 -1.0
  outer loop
    vertex 67.73205915123341 34.314671040989 -0.4999999999999998
    vertex 67.34244750346535 48.64912711755585 -0.4999999999999998
    vertex 67.73205915123341 49.58973284165603 -0.4999999999999998
  endloop
endfacet
facet normal 0.0 0.0 -1.0
  outer loop
    vertex 67.73205915123341 34.314671040989 -0.4999999999999998
    vertex 67.73205915123341 49.58973284165603 -0.4999999999999998
    vertex 68.35184177936524 50.39744928828355 -0.4999999999999998
  endloop
endfacet
facet normal 0.0 0.0 -1.0
  outer loop
    vertex 67.73205915123341 34.314671040989 -0.4999999999999998
    vertex 68.35184177936524 50.39744928828355 -0.4999999999999998
    vertex 68.35184177936522 33.5069545943615 -0.4999999999999998
  endloop
endfacet
facet normal 0.0 0.0 -1.0
  outer loop
    vertex 68.35184177936522 33.5069545943615 -0.4999999999999998
    vertex 68.35184177936524 50.39744928828355 -0.4999999999999998
    vertex 69.15955822599274 32.8871719662297 -0.4999999999999998
  endloop
endfacet
facet normal 0.0 0.0 -1.0
  outer loop
    vertex 69.15955822599274 32.8871719662297 -0.4999999999999998
    vertex 68.35184177936524 50.39744928828355 -0.4999999999999998
    vertex 69.15955822599275 51.01723191641532 -0.4999999999999998
  endloop
endfacet
facet normal 0.0 0.0 -1.0
  outer loop
    vertex 69.15955822599274 32.8871719662297 -0.4999999999999998
    vertex 69.15955822599275 51.01723191641532 -0.4999999999999998
    vertex 69.60955822599274 36.26467104098905 -0.4999999999999998
  endloop
endfacet
facet normal 0.0 0.0 -1.0
  outer loop
    vertex 69.15955822599274 32.8871719662297 -0.4999999999999998
    vertex 69.60955822599274 36.26467104098905 -0.4999999999999998
    vertex 70.1001639500929 32.49756031846165 -0.4999999999999998
  endloop
endfacet
facet normal 0.0 0.0 -1.0
  outer loop
    vertex 70.1001639500929 32.49756031846165 -0.4999999999999998
    vertex 69.60955822599274 36.26467104098905 -0.4999999999999998
    vertex 69.6606694865591 35.87644247333526 -0.4999999999999998
  endloop
endfacet
facet normal 0.0 0.0 -1.0
  outer loop
    vertex 70.1001639500929 32.49756031846165 -0.4999999999999998
    vertex 69.6606694865591 35.87644247333526 -0.4999999999999998
    vertex 69.81052012031606 35.514671040989036 -0.4999999999999998
  endloop
endfacet
facet normal 0.0 0.0 -1.0
  outer loop
    vertex 70.1001639500929 32.49756031846165 -0.4999999999999998
    vertex 69.81052012031606 35.514671040989036 -0.4999999999999998
    vertex 70.04889805421287 35.20401086920918 -0.4999999999999998
  endloop
endfacet
facet normal 0.0 0.0 -1.0
  outer loop
    vertex 70.1001639500929 32.49756031846165 -0.4999999999999998
    vertex 70.04889805421287 35.20401086920918 -0.4999999999999998
    vertex 70.35955822599274 34.965632935312385 -0.4999999999999998
  endloop
endfacet
facet normal 0.0 0.0 -1.0
  outer loop
    vertex 70.1001639500929 32.49756031846165 -0.4999999999999998
    vertex 70.35955822599274 34.965632935312385 -0.4999999999999998
    vertex 71.1095582259927 32.36467104098902 -0.4999999999999998
  endloop
endfacet
facet normal 0.0 0.0 -1.0
  outer loop
    vertex 71.1095582259927 32.36467104098902 -0.4999999999999998
    vertex 70.35955822599274 34.965632935312385 -0.4999999999999998
    vertex 70.72132965833892 34.8157823015554 -0.4999999999999998
  endloop
endfacet
facet normal 0.0 0.0 -1.0
  outer loop
    vertex 71.1095582259927 32.36467104098902 -0.4999999999999998
    vertex 70.72132965833892 34.8157823015554 -0.4999999999999998
    vertex 71.1095582259927 34.764671040989 -0.4999999999999998
  endloop
endfacet
facet normal 0.0 0.0 -1.0
  outer loop
    vertex 71.1095582259927 32.36467104098902 -0.4999999999999998
    vertex 71.1095582259927 34.764671040989 -0.4999999999999998
    vertex 76.18406040946932 34.764671040989 -0.4999999999999998
  endloop
endfacet
facet normal 0.0 0.0 -1.0
  outer loop
    vertex 71.1095582259927 32.36467104098902 -0.4999999999999998
    vertex 76.18406040946932 34.764671040989 -0.4999999999999998
    vertex 77.08406040946932 32.36467104098902 -0.4999999999999998
  endloop
endfacet
facet normal 0.0 0.0 -1.0
  outer loop
    vertex 77.08406040946932 32.36467104098902 -0.4999999999999998
    vertex 76.18406040946932 34.764671040989 -0.4999999999999998
    vertex 77.08406040946932 51.539732841656026 -0.4999999999999998
  endloop
endfacet
facet normal 0.0 0.0 -1.0
  outer loop
    vertex 77.08406040946932 32.36467104098902 -0.4999999999999998
    vertex 77.08406040946932 51.539732841656026 -0.4999999999999998
    vertex 77.47228897712307 51.48862158108965 -0.4999999999999998
  endloop
endfacet
facet normal 0.0 0.0 -1.0
  outer loop
    vertex 77.08406040946932 32.36467104098902 -0.4999999999999998
    vertex 77.47228897712307 51.48862158108965 -0.4999999999999998
    vertex 77.47228897712307 32.41578230155545 -0.4999999999999998
  endloop
endfacet
facet normal 0.0 0.0 -1.0
  outer loop
    vertex 77.47228897712307 32.41578230155545 -0.4999999999999998
    vertex 77.47228897712307 51.48862158108965 -0.4999999999999998
    vertex 77.83406040946937 51.338770947332655 -0.4999999999999998
  endloop
endfacet
facet normal 0.0 0.0 -1.0
  outer loop
    vertex 77.47228897712307 32.41578230155545 -0.4999999999999998
    vertex 77.83406040946937 51.338770947332655 -0.4999999999999998
    vertex 77.83406040946937 32.565632935312344 -0.4999999999999998
  endloop
endfacet
facet normal 0.0 0.0 -1.0
  outer loop
    vertex 77.83406040946937 32.565632935312344 -0.4999999999999998
    vertex 77.83406040946937 51.338770947332655 -0.4999999999999998
    vertex 78.14472058124916 51.10039301343585 -0.4999999999999998
  endloop
endfacet
facet normal 0.0 0.0 -1.0
  outer loop
    vertex 77.83406040946937 32.565632935312344 -0.4999999999999998
    vertex 78.14472058124916 51.10039301343585 -0.4999999999999998
    vertex 78.14472058124916 32.80401086920924 -0.4999999999999998
  endloop
endfacet
facet normal 0.0 0.0 -1.0
  outer loop
    vertex 78.14472058124916 32.80401086920924 -0.4999999999999998
    vertex 78.14472058124916 51.10039301343585 -0.4999999999999998
    vertex 78.38309851514597 50.78973284165602 -0.4999999999999998
  endloop
endfacet
facet normal 0.0 0.0 -1.0
  outer loop
    vertex 78.14472058124916 32.80401086920924 -0.4999999999999998
    vertex 78.38309851514597 50.78973284165602 -0.4999999999999998
    vertex 78.38309851514597 33.114671040989016 -0.4999999999999998
  endloop
endfacet
facet normal 0.0 0.0 -1.0
  outer loop
    vertex 78.38309851514597 33.114671040989016 -0.4999999999999998
    vertex 78.38309851514597 50.78973284165602 -0.4999999999999998
    vertex 78.53294914890293 50.42796140930981 -0.4999999999999998
  endloop
endfacet
facet normal 0.0 0.0 -1.0
  outer loop
    vertex 78.38309851514597 33.114671040989016 -0.4999999999999998
    vertex 78.53294914890293 50.42796140930981 -0.4999999999999998
    vertex 78.53294914890293 33.47644247333523 -0.4999999999999998
  endloop
endfacet
facet normal 0.0 0.0 -1.0
  outer loop
    vertex 78.53294914890293 33.47644247333523 -0.4999999999999998
    vertex 78.53294914890293 50.42796140930981 -0.4999999999999998
    vertex 78.58406040946929 50.03973284165602 -0.4999999999999998
  endloop
endfacet
facet normal 0.0 0.0 -1.0
  outer loop
    vertex 78.53294914890293 33.47644247333523 -0.4999999999999998
    vertex 78.58406040946929 50.03973284165602 -0.4999999999999998
    vertex 78.58406040946929 33.86467104098902 -0.4999999999999998
  endloop
endfacet
facet normal 0.0 0.0 -1.0
  outer loop
    vertex 69.60955822599279 40.45370384165602 -0.4999999999999998
    vertex 69.60955822599274 36.26467104098905 -0.4999999999999998
    vertex 69.60955822599279 47.63973284165602 -0.4999999999999998
  endloop
endfacet
facet normal 0.0 0.0 -1.0
  outer loop
    vertex 14.641473225992819 51.539732841656026 -0.4999999999999998
    vertex -4.325672774007182 32.36767484165599 -0.4999999999999998
    vertex -4.325672774007182 51.539732841656026 -0.4999999999999998
  endloop
endfacet
facet normal 0.0 0.0 -1.0
  outer loop
    vertex -4.325672774007182 32.36767484165599 -0.4999999999999998
    vertex 14.641473225992819 51.539732841656026 -0.4999999999999998
    vertex 14.641473225992819 32.36767484165599 -0.4999999999999998
  endloop
endfacet
facet normal 0.0 0.0 -1.0
  outer loop
    vertex 14.641473225992819 32.36767484165599 -0.4999999999999998
    vertex 14.641473225992819 51.539732841656026 -0.4999999999999998
    vertex 15.417930361300394 51.437510320523245 -0.4999999999999998
  endloop
endfacet
facet normal 0.0 0.0 -1.0
  outer loop
    vertex 14.641473225992819 32.36767484165599 -0.4999999999999998
    vertex 15.417930361300394 51.437510320523245 -0.4999999999999998
    vertex 15.417930361300378 32.469897362788785 -0.4999999999999998
  endloop
endfacet
facet normal 0.0 0.0 -1.0
  outer loop
    vertex 15.417930361300378 32.469897362788785 -0.4999999999999998
    vertex 15.417930361300394 51.437510320523245 -0.4999999999999998
    vertex 16.141473225992808 32.7695986303027 -0.4999999999999998
  endloop
endfacet
facet normal 0.0 0.0 -1.0
  outer loop
    vertex 16.141473225992808 32.7695986303027 -0.4999999999999998
    vertex 15.417930361300394 51.437510320523245 -0.4999999999999998
    vertex 16.141473225992808 51.1378090530093 -0.4999999999999998
  endloop
endfacet
facet normal 0.0 0.0 -1.0
  outer loop
    vertex 16.141473225992808 32.7695986303027 -0.4999999999999998
    vertex 16.141473225992808 51.1378090530093 -0.4999999999999998
    vertex 16.762793569552464 50.661053185215636 -0.4999999999999998
  endloop
endfacet
facet normal 0.0 0.0 -1.0
  outer loop
    vertex 16.141473225992808 32.7695986303027 -0.4999999999999998
    vertex 16.762793569552464 50.661053185215636 -0.4999999999999998
    vertex 16.762793569552464 33.246354498096366 -0.4999999999999998
  endloop
endfacet
facet normal 0.0 0.0 -1.0
  outer loop
    vertex 16.762793569552464 33.246354498096366 -0.4999999999999998
    vertex 16.762793569552464 50.661053185215636 -0.4999999999999998
    vertex 17.239549437346128 50.03973284165602 -0.4999999999999998
  endloop
endfacet
facet normal 0.0 0.0 -1.0
  outer loop
    vertex 16.762793569552464 33.246354498096366 -0.4999999999999998
    vertex 17.239549437346128 50.03973284165602 -0.4999999999999998
    vertex 17.239549437346128 33.86767484165602 -0.4999999999999998
  endloop
endfacet
facet normal 0.0 0.0 -1.0
  outer loop
    vertex 17.239549437346128 33.86767484165602 -0.4999999999999998
    vertex 17.239549437346128 50.03973284165602 -0.4999999999999998
    vertex 17.539250704860013 49.31618997696357 -0.4999999999999998
  endloop
endfacet
facet normal 0.0 0.0 -1.0
  outer loop
    vertex 17.239549437346128 33.86767484165602 -0.4999999999999998
    vertex 17.539250704860013 49.31618997696357 -0.4999999999999998
    vertex 17.539250704860013 34.59121770634846 -0.4999999999999998
  endloop
endfacet
facet normal 0.0 0.0 -1.0
  outer loop
    vertex 17.539250704860013 34.59121770634846 -0.4999999999999998
    vertex 17.539250704860013 49.31618997696357 -0.4999999999999998
    vertex 17.64147322599281 48.539732841656004 -0.4999999999999998
  endloop
endfacet
facet normal 0.0 0.0 -1.0
  outer loop
    vertex 17.539250704860013 34.59121770634846 -0.4999999999999998
    vertex 17.64147322599281 48.539732841656004 -0.4999999999999998
    vertex 17.641473225992808 43.45370384165604 -0.4999999999999998
  endloop
endfacet
facet normal 0.0 0.0 -1.0
  outer loop
    vertex 67.34244750346534 35.25527676508918 -0.4999999999999998
    vertex 67.20955822599275 36.26467104098905 -0.4999999999999998
    vertex 67.20955822599277 40.45370384165602 -0.4999999999999998
  endloop
endfacet
facet normal 0.0 0.0 -1.0
  outer loop
    vertex 67.20955822599277 43.45370384165604 -0.4999999999999998
    vertex 17.641473225992808 40.45370384165602 -0.4999999999999998
    vertex 17.641473225992808 43.45370384165604 -0.4999999999999998
  endloop
endfacet
facet normal 0.0 0.0 -1.0
  outer loop
    vertex 17.641473225992808 40.45370384165602 -0.4999999999999998
    vertex 67.20955822599277 43.45370384165604 -0.4999999999999998
    vertex 67.20955822599277 40.45370384165602 -0.4999999999999998
  endloop
endfacet
facet normal 0.0 0.0 -1.0
  outer loop
    vertex 17.539250704860013 34.59121770634846 -0.4999999999999998
    vertex 17.641473225992808 40.45370384165602 -0.4999999999999998
    vertex 17.64147322599281 35.36767484165603 -0.4999999999999998
  endloop
endfacet
facet normal 0.0 0.0 -1.0
  outer loop
    vertex 17.641473225992808 40.45370384165602 -0.4999999999999998
    vertex 17.539250704860013 34.59121770634846 -0.4999999999999998
    vertex 17.641473225992808 43.45370384165604 -0.4999999999999998
  endloop
endfacet
facet normal 1.0 -8.316802212142042e-16 0.0
  outer loop
    vertex 17.64147322599281 48.539732841656004 -0.4999999999999998
    vertex 17.641473225992808 43.45370384165604 2.4999999999999987
    vertex 17.641473225992808 43.45370384165604 -0.4999999999999998
  endloop
endfacet
facet normal 1.0 -8.316802212142042e-16 0.0
  outer loop
    vertex 17.641473225992808 43.45370384165604 2.4999999999999987
    vertex 17.64147322599281 48.539732841656004 -0.4999999999999998
    vertex 17.64147322599281 48.539732841656004 2.4999999999999987
  endloop
endfacet
facet normal 0.0 1.0 0.0
  outer loop
    vertex 17.641473225992808 43.45370384165604 2.4999999999999987
    vertex 67.20955822599277 43.45370384165604 -0.4999999999999998
    vertex 17.641473225992808 43.45370384165604 -0.4999999999999998
  endloop
endfacet
facet normal 0.0 1.0 0.0
  outer loop
    vertex 67.20955822599277 43.45370384165604 -0.4999999999999998
    vertex 17.641473225992808 43.45370384165604 2.4999999999999987
    vertex 67.20955822599277 43.45370384165604 2.4999999999999987
  endloop
endfacet
facet normal -1.0 0.0 0.0
  outer loop
    vertex 67.20955822599277 47.63973284165602 2.4999999999999987
    vertex 67.20955822599277 43.45370384165604 -0.4999999999999998
    vertex 67.20955822599277 43.45370384165604 2.4999999999999987
  endloop
endfacet
facet normal -1.0 0.0 0.0
  outer loop
    vertex 67.20955822599277 43.45370384165604 -0.4999999999999998
    vertex 67.20955822599277 47.63973284165602 2.4999999999999987
    vertex 67.20955822599277 47.63973284165602 -0.4999999999999998
  endloop
endfacet
facet normal -0.965925826289069 0.2588190451025182 0.0
  outer loop
    vertex 67.34244750346535 48.64912711755585 2.4999999999999987
    vertex 67.20955822599277 47.63973284165602 -0.4999999999999998
    vertex 67.20955822599277 47.63973284165602 2.4999999999999987
  endloop
endfacet
facet normal -0.9914448613738106 0.13052619222005002 0.0
  outer loop
    vertex 67.20955822599277 47.63973284165602 -0.4999999999999998
    vertex 67.34244750346535 48.64912711755585 2.4999999999999987
    vertex 67.34244750346535 48.64912711755585 -0.4999999999999998
  endloop
endfacet
facet normal -0.8660254037844378 0.5000000000000013 0.0
  outer loop
    vertex 67.73205915123341 49.58973284165603 2.4999999999999987
    vertex 67.34244750346535 48.64912711755585 -0.4999999999999998
    vertex 67.34244750346535 48.64912711755585 2.4999999999999987
  endloop
endfacet
facet normal -0.965925826289069 0.2588190451025182 0.0
  outer loop
    vertex 67.34244750346535 48.64912711755585 -0.4999999999999998
    vertex 67.73205915123341 49.58973284165603 2.4999999999999987
    vertex 67.73205915123341 49.58973284165603 -0.4999999999999998
  endloop
endfacet
facet normal -0.7071067811865451 0.7071067811865498 0.0
  outer loop
    vertex 68.35184177936524 50.39744928828355 2.4999999999999987
    vertex 67.73205915123341 49.58973284165603 -0.4999999999999998
    vertex 67.73205915123341 49.58973284165603 2.4999999999999987
  endloop
endfacet
facet normal -0.8660254037844378 0.5000000000000013 0.0
  outer loop
    vertex 67.73205915123341 49.58973284165603 -0.4999999999999998
    vertex 68.35184177936524 50.39744928828355 2.4999999999999987
    vertex 68.35184177936524 50.39744928828355 -0.4999999999999998
  endloop
endfacet
facet normal -0.7071067811865451 0.7071067811865498 0.0
  outer loop
    vertex 68.35184177936524 50.39744928828355 2.4999999999999987
    vertex 69.15955822599275 51.01723191641532 -0.4999999999999998
    vertex 68.35184177936524 50.39744928828355 -0.4999999999999998
  endloop
endfacet
facet normal -0.5000000000000021 0.8660254037844375 0.0
  outer loop
    vertex 69.15955822599275 51.01723191641532 -0.4999999999999998
    vertex 68.35184177936524 50.39744928828355 2.4999999999999987
    vertex 69.15955822599275 51.01723191641532 2.4999999999999987
  endloop
endfacet
facet normal -0.5000000000000021 0.8660254037844375 0.0
  outer loop
    vertex 69.15955822599275 51.01723191641532 2.4999999999999987
    vertex 70.10016395009292 51.40684356418334 -0.4999999999999998
    vertex 69.15955822599275 51.01723191641532 -0.4999999999999998
  endloop
endfacet
facet normal -0.25881904510252224 0.9659258262890679 0.0
  outer loop
    vertex 70.10016395009292 51.40684356418334 -0.4999999999999998
    vertex 69.15955822599275 51.01723191641532 2.4999999999999987
    vertex 70.10016395009292 51.40684356418334 2.4999999999999987
  endloop
endfacet
facet normal -0.25881904510252224 0.9659258262890679 0.0
  outer loop
    vertex 70.10016395009292 51.40684356418334 2.4999999999999987
    vertex 71.10955822599271 51.539732841656026 -0.4999999999999998
    vertex 70.10016395009292 51.40684356418334 -0.4999999999999998
  endloop
endfacet
facet normal -0.13052619222005002 0.9914448613738106 0.0
  outer loop
    vertex 71.10955822599271 51.539732841656026 -0.4999999999999998
    vertex 70.10016395009292 51.40684356418334 2.4999999999999987
    vertex 71.10955822599271 51.539732841656026 2.4999999999999987
  endloop
endfacet
facet normal 0.0 1.0 0.0
  outer loop
    vertex 71.10955822599271 51.539732841656026 2.4999999999999987
    vertex 77.08406040946932 51.539732841656026 -0.4999999999999998
    vertex 71.10955822599271 51.539732841656026 -0.4999999999999998
  endloop
endfacet
facet normal 0.0 1.0 0.0
  outer loop
    vertex 77.08406040946932 51.539732841656026 -0.4999999999999998
    vertex 71.10955822599271 51.539732841656026 2.4999999999999987
    vertex 77.08406040946932 51.539732841656026 2.4999999999999987
  endloop
endfacet
facet normal 0.13052619222005082 0.9914448613738106 0.0
  outer loop
    vertex 77.08406040946932 51.539732841656026 2.4999999999999987
    vertex 77.47228897712307 51.48862158108965 -0.4999999999999998
    vertex 77.08406040946932 51.539732841656026 -0.4999999999999998
  endloop
endfacet
facet normal 0.25881904510251846 0.965925826289069 0.0
  outer loop
    vertex 77.47228897712307 51.48862158108965 -0.4999999999999998
    vertex 77.08406040946932 51.539732841656026 2.4999999999999987
    vertex 77.47228897712307 51.48862158108965 2.4999999999999987
  endloop
endfacet
facet normal 0.25881904510251846 0.965925826289069 0.0
  outer loop
    vertex 77.47228897712307 51.48862158108965 2.4999999999999987
    vertex 77.83406040946937 51.338770947332655 -0.4999999999999998
    vertex 77.47228897712307 51.48862158108965 -0.4999999999999998
  endloop
endfacet
facet normal 0.5000000000000011 0.8660254037844379 0.0
  outer loop
    vertex 77.83406040946937 51.338770947332655 -0.4999999999999998
    vertex 77.47228897712307 51.48862158108965 2.4999999999999987
    vertex 77.83406040946937 51.338770947332655 2.4999999999999987
  endloop
endfacet
facet normal 0.5000000000000011 0.8660254037844379 0.0
  outer loop
    vertex 77.83406040946937 51.338770947332655 2.4999999999999987
    vertex 78.14472058124916 51.10039301343585 -0.4999999999999998
    vertex 77.83406040946937 51.338770947332655 -0.4999999999999998
  endloop
endfacet
facet normal 0.7071067811865549 0.70710678118654 0.0
  outer loop
    vertex 78.14472058124916 51.10039301343585 -0.4999999999999998
    vertex 77.83406040946937 51.338770947332655 2.4999999999999987
    vertex 78.14472058124916 51.10039301343585 2.4999999999999987
  endloop
endfacet
facet normal 0.7071067811865549 0.70710678118654 0.0
  outer loop
    vertex 78.14472058124916 51.10039301343585 -0.4999999999999998
    vertex 78.38309851514597 50.78973284165602 2.4999999999999987
    vertex 78.38309851514597 50.78973284165602 -0.4999999999999998
  endloop
endfacet
facet normal 0.8660254037844354 0.5000000000000057 0.0
  outer loop
    vertex 78.38309851514597 50.78973284165602 2.4999999999999987
    vertex 78.14472058124916 51.10039301343585 -0.4999999999999998
    vertex 78.14472058124916 51.10039301343585 2.4999999999999987
  endloop
endfacet
facet normal 0.8660254037844354 0.5000000000000057 0.0
  outer loop
    vertex 78.38309851514597 50.78973284165602 -0.4999999999999998
    vertex 78.53294914890293 50.42796140930981 2.4999999999999987
    vertex 78.53294914890293 50.42796140930981 -0.4999999999999998
  endloop
endfacet
facet normal 0.9659258262890672 0.25881904510252446 0.0
  outer loop
    vertex 78.53294914890293 50.42796140930981 2.4999999999999987
    vertex 78.38309851514597 50.78973284165602 -0.4999999999999998
    vertex 78.38309851514597 50.78973284165602 2.4999999999999987
  endloop
endfacet
facet normal 0.9659258262890672 0.25881904510252446 0.0
  outer loop
    vertex 78.53294914890293 50.42796140930981 -0.4999999999999998
    vertex 78.58406040946929 50.03973284165602 2.4999999999999987
    vertex 78.58406040946929 50.03973284165602 -0.4999999999999998
  endloop
endfacet
facet normal 0.9914448613738129 0.13052619222003217 0.0
  outer loop
    vertex 78.58406040946929 50.03973284165602 2.4999999999999987
    vertex 78.53294914890293 50.42796140930981 -0.4999999999999998
    vertex 78.53294914890293 50.42796140930981 2.4999999999999987
  endloop
endfacet
facet normal 1.0 0.0 0.0
  outer loop
    vertex 78.58406040946929 50.03973284165602 -0.4999999999999998
    vertex 78.58406040946929 33.86467104098902 2.4999999999999987
    vertex 78.58406040946929 33.86467104098902 -0.4999999999999998
  endloop
endfacet
facet normal 1.0 0.0 0.0
  outer loop
    vertex 78.58406040946929 33.86467104098902 2.4999999999999987
    vertex 78.58406040946929 50.03973284165602 -0.4999999999999998
    vertex 78.58406040946929 50.03973284165602 2.4999999999999987
  endloop
endfacet
facet normal 0.9914448613738078 -0.1305261922200719 0.0
  outer loop
    vertex 78.58406040946929 33.86467104098902 -0.4999999999999998
    vertex 78.53294914890293 33.47644247333523 2.4999999999999987
    vertex 78.53294914890293 33.47644247333523 -0.4999999999999998
  endloop
endfacet
facet normal 0.9659258262890661 -0.25881904510252857 0.0
  outer loop
    vertex 78.53294914890293 33.47644247333523 2.4999999999999987
    vertex 78.58406040946929 33.86467104098902 -0.4999999999999998
    vertex 78.58406040946929 33.86467104098902 2.4999999999999987
  endloop
endfacet
facet normal 0.9659258262890661 -0.25881904510252857 0.0
  outer loop
    vertex 78.53294914890293 33.47644247333523 -0.4999999999999998
    vertex 78.38309851514597 33.114671040989016 2.4999999999999987
    vertex 78.38309851514597 33.114671040989016 -0.4999999999999998
  endloop
endfacet
facet normal 0.8660254037844433 -0.49999999999999206 0.0
  outer loop
    vertex 78.38309851514597 33.114671040989016 2.4999999999999987
    vertex 78.53294914890293 33.47644247333523 -0.4999999999999998
    vertex 78.53294914890293 33.47644247333523 2.4999999999999987
  endloop
endfacet
facet normal 0.8660254037844433 -0.49999999999999206 0.0
  outer loop
    vertex 78.38309851514597 33.114671040989016 -0.4999999999999998
    vertex 78.14472058124916 32.80401086920924 2.4999999999999987
    vertex 78.14472058124916 32.80401086920924 -0.4999999999999998
  endloop
endfacet
facet normal 0.7071067811865549 -0.70710678118654 0.0
  outer loop
    vertex 78.14472058124916 32.80401086920924 2.4999999999999987
    vertex 78.38309851514597 33.114671040989016 -0.4999999999999998
    vertex 78.38309851514597 33.114671040989016 2.4999999999999987
  endloop
endfacet
facet normal 0.7071067811865549 -0.70710678118654 0.0
  outer loop
    vertex 78.14472058124916 32.80401086920924 2.4999999999999987
    vertex 77.83406040946937 32.565632935312344 -0.4999999999999998
    vertex 78.14472058124916 32.80401086920924 -0.4999999999999998
  endloop
endfacet
facet normal 0.5000000000000011 -0.8660254037844379 0.0
  outer loop
    vertex 77.83406040946937 32.565632935312344 -0.4999999999999998
    vertex 78.14472058124916 32.80401086920924 2.4999999999999987
    vertex 77.83406040946937 32.565632935312344 2.4999999999999987
  endloop
endfacet
facet normal 0.5000000000000011 -0.8660254037844379 0.0
  outer loop
    vertex 77.83406040946937 32.565632935312344 2.4999999999999987
    vertex 77.47228897712307 32.41578230155545 -0.4999999999999998
    vertex 77.83406040946937 32.565632935312344 -0.4999999999999998
  endloop
endfacet
facet normal 0.25881904510251846 -0.965925826289069 0.0
  outer loop
    vertex 77.47228897712307 32.41578230155545 -0.4999999999999998
    vertex 77.83406040946937 32.565632935312344 2.4999999999999987
    vertex 77.47228897712307 32.41578230155545 2.4999999999999987
  endloop
endfacet
facet normal 0.25881904510251846 -0.965925826289069 0.0
  outer loop
    vertex 77.47228897712307 32.41578230155545 2.4999999999999987
    vertex 77.08406040946932 32.36467104098902 -0.4999999999999998
    vertex 77.47228897712307 32.41578230155545 -0.4999999999999998
  endloop
endfacet
facet normal 0.13052619222005082 -0.9914448613738106 0.0
  outer loop
    vertex 77.08406040946932 32.36467104098902 -0.4999999999999998
    vertex 77.47228897712307 32.41578230155545 2.4999999999999987
    vertex 77.08406040946932 32.36467104098902 2.4999999999999987
  endloop
endfacet
facet normal 0.0 -1.0 0.0
  outer loop
    vertex 77.08406040946932 32.36467104098902 2.4999999999999987
    vertex 71.1095582259927 32.36467104098902 -0.4999999999999998
    vertex 77.08406040946932 32.36467104098902 -0.4999999999999998
  endloop
endfacet
facet normal 0.0 -1.0 0.0
  outer loop
    vertex 71.1095582259927 32.36467104098902 -0.4999999999999998
    vertex 77.08406040946932 32.36467104098902 2.4999999999999987
    vertex 71.1095582259927 32.36467104098902 2.4999999999999987
  endloop
endfacet
facet normal -0.13052619222005002 -0.9914448613738106 0.0
  outer loop
    vertex 71.1095582259927 32.36467104098902 2.4999999999999987
    vertex 70.1001639500929 32.49756031846165 -0.4999999999999998
    vertex 71.1095582259927 32.36467104098902 -0.4999999999999998
  endloop
endfacet
facet normal -0.25881904510252224 -0.9659258262890679 0.0
  outer loop
    vertex 70.1001639500929 32.49756031846165 -0.4999999999999998
    vertex 71.1095582259927 32.36467104098902 2.4999999999999987
    vertex 70.1001639500929 32.49756031846165 2.4999999999999987
  endloop
endfacet
facet normal -0.25881904510252224 -0.9659258262890679 0.0
  outer loop
    vertex 70.1001639500929 32.49756031846165 2.4999999999999987
    vertex 69.15955822599274 32.8871719662297 -0.4999999999999998
    vertex 70.1001639500929 32.49756031846165 -0.4999999999999998
  endloop
endfacet
facet normal -0.5000000000000021 -0.8660254037844375 0.0
  outer loop
    vertex 69.15955822599274 32.8871719662297 -0.4999999999999998
    vertex 70.1001639500929 32.49756031846165 2.4999999999999987
    vertex 69.15955822599274 32.8871719662297 2.4999999999999987
  endloop
endfacet
facet normal -0.5000000000000021 -0.8660254037844375 0.0
  outer loop
    vertex 69.15955822599274 32.8871719662297 2.4999999999999987
    vertex 68.35184177936522 33.5069545943615 -0.4999999999999998
    vertex 69.15955822599274 32.8871719662297 -0.4999999999999998
  endloop
endfacet
facet normal -0.7071067811865451 -0.7071067811865498 0.0
  outer loop
    vertex 68.35184177936522 33.5069545943615 -0.4999999999999998
    vertex 69.15955822599274 32.8871719662297 2.4999999999999987
    vertex 68.35184177936522 33.5069545943615 2.4999999999999987
  endloop
endfacet
facet normal -0.8660254037844387 -0.4999999999999999 0.0
  outer loop
    vertex 67.73205915123341 34.314671040989 2.4999999999999987
    vertex 68.35184177936522 33.5069545943615 -0.4999999999999998
    vertex 68.35184177936522 33.5069545943615 2.4999999999999987
  endloop
endfacet
facet normal -0.7071067811865451 -0.7071067811865498 0.0
  outer loop
    vertex 68.35184177936522 33.5069545943615 -0.4999999999999998
    vertex 67.73205915123341 34.314671040989 2.4999999999999987
    vertex 67.73205915123341 34.314671040989 -0.4999999999999998
  endloop
endfacet
facet normal -0.9659258262890693 -0.25881904510251713 0.0
  outer loop
    vertex 67.34244750346534 35.25527676508918 2.4999999999999987
    vertex 67.73205915123341 34.314671040989 -0.4999999999999998
    vertex 67.73205915123341 34.314671040989 2.4999999999999987
  endloop
endfacet
facet normal -0.8660254037844387 -0.4999999999999999 0.0
  outer loop
    vertex 67.73205915123341 34.314671040989 -0.4999999999999998
    vertex 67.34244750346534 35.25527676508918 2.4999999999999987
    vertex 67.34244750346534 35.25527676508918 -0.4999999999999998
  endloop
endfacet
facet normal -0.9914448613738106 -0.130526192220051 0.0
  outer loop
    vertex 67.20955822599275 36.26467104098905 2.4999999999999987
    vertex 67.34244750346534 35.25527676508918 -0.4999999999999998
    vertex 67.34244750346534 35.25527676508918 2.4999999999999987
  endloop
endfacet
facet normal -0.9659258262890693 -0.25881904510251713 0.0
  outer loop
    vertex 67.34244750346534 35.25527676508918 -0.4999999999999998
    vertex 67.20955822599275 36.26467104098905 2.4999999999999987
    vertex 67.20955822599275 36.26467104098905 -0.4999999999999998
  endloop
endfacet
facet normal -1.0 4.039070520668497e-15 0.0
  outer loop
    vertex 67.20955822599277 40.45370384165602 2.4999999999999987
    vertex 67.20955822599275 36.26467104098905 -0.4999999999999998
    vertex 67.20955822599275 36.26467104098905 2.4999999999999987
  endloop
endfacet
facet normal -1.0 4.039070520668497e-15 0.0
  outer loop
    vertex 67.20955822599275 36.26467104098905 -0.4999999999999998
    vertex 67.20955822599277 40.45370384165602 2.4999999999999987
    vertex 67.20955822599277 40.45370384165602 -0.4999999999999998
  endloop
endfacet
facet normal 0.0 -1.0 0.0
  outer loop
    vertex 67.20955822599277 40.45370384165602 2.4999999999999987
    vertex 17.641473225992808 40.45370384165602 -0.4999999999999998
    vertex 67.20955822599277 40.45370384165602 -0.4999999999999998
  endloop
endfacet
facet normal 0.0 -1.0 0.0
  outer loop
    vertex 17.641473225992808 40.45370384165602 -0.4999999999999998
    vertex 67.20955822599277 40.45370384165602 2.4999999999999987
    vertex 17.641473225992808 40.45370384165602 2.4999999999999987
  endloop
endfacet
facet normal 1.0 8.316802212142042e-16 0.0
  outer loop
    vertex 17.641473225992808 40.45370384165602 -0.4999999999999998
    vertex 17.64147322599281 35.36767484165603 2.4999999999999987
    vertex 17.64147322599281 35.36767484165603 -0.4999999999999998
  endloop
endfacet
facet normal 1.0 8.316802212142042e-16 0.0
  outer loop
    vertex 17.64147322599281 35.36767484165603 2.4999999999999987
    vertex 17.641473225992808 40.45370384165602 -0.4999999999999998
    vertex 17.641473225992808 40.45370384165602 2.4999999999999987
  endloop
endfacet
facet normal 0.9914448613738106 -0.13052619222005082 0.0
  outer loop
    vertex 17.64147322599281 35.36767484165603 -0.4999999999999998
    vertex 17.539250704860013 34.59121770634846 2.4999999999999987
    vertex 17.539250704860013 34.59121770634846 -0.4999999999999998
  endloop
endfacet
facet normal 0.9659258262890676 -0.2588190451025233 0.0
  outer loop
    vertex 17.539250704860013 34.59121770634846 2.4999999999999987
    vertex 17.64147322599281 35.36767484165603 -0.4999999999999998
    vertex 17.64147322599281 35.36767484165603 2.4999999999999987
  endloop
endfacet
facet normal 0.9659258262890676 -0.2588190451025233 0.0
  outer loop
    vertex 17.539250704860013 34.59121770634846 -0.4999999999999998
    vertex 17.239549437346128 33.86767484165602 2.4999999999999987
    vertex 17.239549437346128 33.86767484165602 -0.4999999999999998
  endloop
endfacet
facet normal 0.8660254037844372 -0.5000000000000028 0.0
  outer loop
    vertex 17.239549437346128 33.86767484165602 2.4999999999999987
    vertex 17.539250704860013 34.59121770634846 -0.4999999999999998
    vertex 17.539250704860013 34.59121770634846 2.4999999999999987
  endloop
endfacet
facet normal 0.8660254037844372 -0.5000000000000028 0.0
  outer loop
    vertex 17.239549437346128 33.86767484165602 -0.4999999999999998
    vertex 16.762793569552464 33.246354498096366 2.4999999999999987
    vertex 16.762793569552464 33.246354498096366 -0.4999999999999998
  endloop
endfacet
facet normal 0.7071067811865492 -0.707106781186546 0.0
  outer loop
    vertex 16.762793569552464 33.246354498096366 2.4999999999999987
    vertex 17.239549437346128 33.86767484165602 -0.4999999999999998
    vertex 17.239549437346128 33.86767484165602 2.4999999999999987
  endloop
endfacet
facet normal 0.7071067811865492 -0.707106781186546 0.0
  outer loop
    vertex 16.762793569552464 33.246354498096366 2.4999999999999987
    vertex 16.141473225992808 32.7695986303027 -0.4999999999999998
    vertex 16.762793569552464 33.246354498096366 -0.4999999999999998
  endloop
endfacet
facet normal 0.500000000000003 -0.866025403784437 0.0
  outer loop
    vertex 16.141473225992808 32.7695986303027 -0.4999999999999998
    vertex 16.762793569552464 33.246354498096366 2.4999999999999987
    vertex 16.141473225992808 32.7695986303027 2.4999999999999987
  endloop
endfacet
facet normal 0.500000000000003 -0.866025403784437 0.0
  outer loop
    vertex 16.141473225992808 32.7695986303027 2.4999999999999987
    vertex 15.417930361300378 32.469897362788785 -0.4999999999999998
    vertex 16.141473225992808 32.7695986303027 -0.4999999999999998
  endloop
endfacet
facet normal 0.2588190451025219 -0.9659258262890681 0.0
  outer loop
    vertex 15.417930361300378 32.469897362788785 -0.4999999999999998
    vertex 16.141473225992808 32.7695986303027 2.4999999999999987
    vertex 15.417930361300378 32.469897362788785 2.4999999999999987
  endloop
endfacet
facet normal 0.2588190451025219 -0.9659258262890681 0.0
  outer loop
    vertex 15.417930361300378 32.469897362788785 2.4999999999999987
    vertex 14.641473225992819 32.36767484165599 -0.4999999999999998
    vertex 15.417930361300378 32.469897362788785 -0.4999999999999998
  endloop
endfacet
facet normal 0.13052619222005216 -0.9914448613738104 0.0
  outer loop
    vertex 14.641473225992819 32.36767484165599 -0.4999999999999998
    vertex 15.417930361300378 32.469897362788785 2.4999999999999987
    vertex 14.641473225992819 32.36767484165599 2.4999999999999987
  endloop
endfacet
facet normal -0.13052619222004055 0.9914448613738119 -8.1260749492075585e-19
  outer loop
    vertex 14.5628210706146 33.56767484165601 2.4999999999999987
    vertex 15.104667499972273 33.63901027738978 0.39999999999999947
    vertex 14.5628210706146 33.56767484165601 0.39999999999999947
  endloop
endfacet
facet normal -0.2588190451025234 0.9659258262890676 -9.309285205640819e-21
  outer loop
    vertex 15.104667499972273 33.63901027738978 0.39999999999999947
    vertex 14.5628210706146 33.56767484165601 2.4999999999999987
    vertex 15.104667499972273 33.63901027738978 2.4999999999999987
  endloop
endfacet
facet normal -0.2588190451025234 0.9659258262890676 -9.309285205640819e-21
  outer loop
    vertex 15.104667499972273 33.63901027738978 2.4999999999999987
    vertex 15.536295849644693 33.8177965937288 0.39999999999999947
    vertex 15.104667499972273 33.63901027738978 0.39999999999999947
  endloop
endfacet
facet normal -0.5000000000000105 0.8660254037844327 3.528475703158115e-18
  outer loop
    vertex 15.536295849644693 33.8177965937288 0.39999999999999947
    vertex 15.104667499972273 33.63901027738978 2.4999999999999987
    vertex 15.536295849644693 33.8177965937288 2.4999999999999987
  endloop
endfacet
facet normal -0.5000000000000105 0.8660254037844327 3.528475703158115e-18
  outer loop
    vertex 15.536295849644693 33.8177965937288 2.4999999999999987
    vertex 15.906943516279622 34.10220455136924 0.39999999999999947
    vertex 15.536295849644693 33.8177965937288 0.39999999999999947
  endloop
endfacet
facet normal -0.7071067811865483 0.7071067811865467 3.8637231545436677e-19
  outer loop
    vertex 15.906943516279622 34.10220455136924 0.39999999999999947
    vertex 15.536295849644693 33.8177965937288 2.4999999999999987
    vertex 15.906943516279622 34.10220455136924 2.4999999999999987
  endloop
endfacet
facet normal -0.8660254037844353 0.5000000000000058 -3.1421033877037406e-18
  outer loop
    vertex 16.19135147392001 34.47285221800411 2.4999999999999987
    vertex 15.906943516279622 34.10220455136924 0.39999999999999947
    vertex 15.906943516279622 34.10220455136924 2.4999999999999987
  endloop
endfacet
facet normal -0.7071067811865483 0.7071067811865467 3.8637231545436677e-19
  outer loop
    vertex 15.906943516279622 34.10220455136924 0.39999999999999947
    vertex 16.19135147392001 34.47285221800411 2.4999999999999987
    vertex 16.19135147392001 34.47285221800411 0.39999999999999947
  endloop
endfacet
facet normal -0.9659258262890679 0.2588190451025222 -2.6389719911486646e-19
  outer loop
    vertex 16.37013779025906 34.90448056767657 2.4999999999999987
    vertex 16.19135147392001 34.47285221800411 0.39999999999999947
    vertex 16.19135147392001 34.47285221800411 2.4999999999999987
  endloop
endfacet
facet normal -0.8660254037844353 0.5000000000000058 -3.1421033877037406e-18
  outer loop
    vertex 16.19135147392001 34.47285221800411 0.39999999999999947
    vertex 16.37013779025906 34.90448056767657 2.4999999999999987
    vertex 16.37013779025906 34.90448056767657 0.39999999999999947
  endloop
endfacet
facet normal -0.991444861373811 0.1305261922200465 2.7086916497359745e-19
  outer loop
    vertex 16.441473225992812 35.44632699703426 2.4999999999999987
    vertex 16.37013779025906 34.90448056767657 0.39999999999999947
    vertex 16.37013779025906 34.90448056767657 2.4999999999999987
  endloop
endfacet
facet normal -0.9659258262890679 0.2588190451025222 -2.6389719911486646e-19
  outer loop
    vertex 16.37013779025906 34.90448056767657 0.39999999999999947
    vertex 16.441473225992812 35.44632699703426 2.4999999999999987
    vertex 16.441473225992812 35.44632699703426 0.39999999999999947
  endloop
endfacet
facet normal -1.0 2.7771564655955134e-16 4.3744267032175657e-16
  outer loop
    vertex 16.441473225992812 48.46108068627773 2.4999999999999987
    vertex 16.441473225992812 35.44632699703426 0.39999999999999947
    vertex 16.441473225992812 35.44632699703426 2.4999999999999987
  endloop
endfacet
facet normal -1.0 2.7771564655955134e-16 4.3744267032175657e-16
  outer loop
    vertex 16.441473225992812 35.44632699703426 0.39999999999999947
    vertex 16.441473225992812 48.46108068627773 2.4999999999999987
    vertex 16.441473225992812 48.46108068627773 0.39999999999999947
  endloop
endfacet
facet normal -0.9659258262890683 -0.2588190451025209 2.638971991148443e-19
  outer loop
    vertex 16.37013779025906 49.002927115635444 2.4999999999999987
    vertex 16.441473225992812 48.46108068627773 0.39999999999999947
    vertex 16.441473225992812 48.46108068627773 2.4999999999999987
  endloop
endfacet
facet normal -0.9914448613738099 -0.1305261922200559 -2.708691649736174e-19
  outer loop
    vertex 16.441473225992812 48.46108068627773 0.39999999999999947
    vertex 16.37013779025906 49.002927115635444 2.4999999999999987
    vertex 16.37013779025906 49.002927115635444 0.39999999999999947
  endloop
endfacet
facet normal -0.8660254037844394 -0.499999999999999 5.936865990023123e-19
  outer loop
    vertex 16.19135147392001 49.43455546530792 2.4999999999999987
    vertex 16.37013779025906 49.002927115635444 0.39999999999999947
    vertex 16.37013779025906 49.002927115635444 2.4999999999999987
  endloop
endfacet
facet normal -0.9659258262890683 -0.2588190451025209 2.638971991148443e-19
  outer loop
    vertex 16.37013779025906 49.002927115635444 0.39999999999999947
    vertex 16.19135147392001 49.43455546530792 2.4999999999999987
    vertex 16.19135147392001 49.43455546530792 0.39999999999999947
  endloop
endfacet
facet normal -0.7071067811865487 -0.7071067811865462 -8.878360788963343e-19
  outer loop
    vertex 15.906943516279616 49.80520313194284 2.4999999999999987
    vertex 16.19135147392001 49.43455546530792 0.39999999999999947
    vertex 16.19135147392001 49.43455546530792 2.4999999999999987
  endloop
endfacet
facet normal -0.8660254037844394 -0.499999999999999 5.936865990023123e-19
  outer loop
    vertex 16.19135147392001 49.43455546530792 0.39999999999999947
    vertex 15.906943516279616 49.80520313194284 2.4999999999999987
    vertex 15.906943516279616 49.80520313194284 0.39999999999999947
  endloop
endfacet
facet normal -0.7071067811865487 -0.7071067811865462 -8.878360788963343e-19
  outer loop
    vertex 15.906943516279616 49.80520313194284 2.4999999999999987
    vertex 15.536295849644693 50.089611089583244 0.39999999999999947
    vertex 15.906943516279616 49.80520313194284 0.39999999999999947
  endloop
endfacet
facet normal -0.5000000000000036 -0.8660254037844365 1.2047908720186058e-19
  outer loop
    vertex 15.536295849644693 50.089611089583244 0.39999999999999947
    vertex 15.906943516279616 49.80520313194284 2.4999999999999987
    vertex 15.536295849644693 50.089611089583244 2.4999999999999987
  endloop
endfacet
facet normal -0.5000000000000036 -0.8660254037844365 1.2047908720186058e-19
  outer loop
    vertex 15.536295849644693 50.089611089583244 2.4999999999999987
    vertex 15.104667499972273 50.26839740592227 0.39999999999999947
    vertex 15.536295849644693 50.089611089583244 0.39999999999999947
  endloop
endfacet
facet normal -0.25881904510251813 -0.9659258262890691 1.0648980816651239e-18
  outer loop
    vertex 15.104667499972273 50.26839740592227 0.39999999999999947
    vertex 15.536295849644693 50.089611089583244 2.4999999999999987
    vertex 15.104667499972273 50.26839740592227 2.4999999999999987
  endloop
endfacet
facet normal -0.25881904510251813 -0.9659258262890691 1.0648980816651239e-18
  outer loop
    vertex 15.104667499972273 50.26839740592227 2.4999999999999987
    vertex 14.562821070614545 50.33973284165601 0.39999999999999947
    vertex 15.104667499972273 50.26839740592227 0.39999999999999947
  endloop
endfacet
facet normal -0.13052619222004275 -0.9914448613738117 -2.7086916497358975e-19
  outer loop
    vertex 14.562821070614545 50.33973284165601 0.39999999999999947
    vertex 15.104667499972273 50.26839740592227 2.4999999999999987
    vertex 14.562821070614545 50.33973284165601 2.4999999999999987
  endloop
endfacet
facet normal 0.1305261922200513 0.9914448613738104 0.0
  outer loop
    vertex 14.641473225992819 51.539732841656026 2.4999999999999987
    vertex 15.417930361300394 51.437510320523245 -0.4999999999999998
    vertex 14.641473225992819 51.539732841656026 -0.4999999999999998
  endloop
endfacet
facet normal 0.2588190451025214 0.9659258262890681 0.0
  outer loop
    vertex 15.417930361300394 51.437510320523245 -0.4999999999999998
    vertex 14.641473225992819 51.539732841656026 2.4999999999999987
    vertex 15.417930361300394 51.437510320523245 2.4999999999999987
  endloop
endfacet
facet normal 0.2588190451025214 0.9659258262890681 0.0
  outer loop
    vertex 15.417930361300394 51.437510320523245 2.4999999999999987
    vertex 16.141473225992808 51.1378090530093 -0.4999999999999998
    vertex 15.417930361300394 51.437510320523245 -0.4999999999999998
  endloop
endfacet
facet normal 0.500000000000003 0.866025403784437 0.0
  outer loop
    vertex 16.141473225992808 51.1378090530093 -0.4999999999999998
    vertex 15.417930361300394 51.437510320523245 2.4999999999999987
    vertex 16.141473225992808 51.1378090530093 2.4999999999999987
  endloop
endfacet
facet normal 0.500000000000003 0.866025403784437 0.0
  outer loop
    vertex 16.141473225992808 51.1378090530093 2.4999999999999987
    vertex 16.762793569552464 50.661053185215636 -0.4999999999999998
    vertex 16.141473225992808 51.1378090530093 -0.4999999999999998
  endloop
endfacet
facet normal 0.7071067811865505 0.7071067811865446 0.0
  outer loop
    vertex 16.762793569552464 50.661053185215636 -0.4999999999999998
    vertex 16.141473225992808 51.1378090530093 2.4999999999999987
    vertex 16.762793569552464 50.661053185215636 2.4999999999999987
  endloop
endfacet
facet normal 0.7071067811865505 0.7071067811865446 0.0
  outer loop
    vertex 16.762793569552464 50.661053185215636 -0.4999999999999998
    vertex 17.239549437346128 50.03973284165602 2.4999999999999987
    vertex 17.239549437346128 50.03973284165602 -0.4999999999999998
  endloop
endfacet
facet normal 0.866025403784439 0.49999999999999933 0.0
  outer loop
    vertex 17.239549437346128 50.03973284165602 2.4999999999999987
    vertex 16.762793569552464 50.661053185215636 -0.4999999999999998
    vertex 16.762793569552464 50.661053185215636 2.4999999999999987
  endloop
endfacet
facet normal 0.866025403784439 0.49999999999999933 0.0
  outer loop
    vertex 17.239549437346128 50.03973284165602 -0.4999999999999998
    vertex 17.539250704860013 49.31618997696357 2.4999999999999987
    vertex 17.539250704860013 49.31618997696357 -0.4999999999999998
  endloop
endfacet
facet normal 0.9659258262890681 0.2588190451025219 0.0
  outer loop
    vertex 17.539250704860013 49.31618997696357 2.4999999999999987
    vertex 17.239549437346128 50.03973284165602 -0.4999999999999998
    vertex 17.239549437346128 50.03973284165602 2.4999999999999987
  endloop
endfacet
facet normal 0.9659258262890681 0.2588190451025219 0.0
  outer loop
    vertex 17.539250704860013 49.31618997696357 -0.4999999999999998
    vertex 17.64147322599281 48.539732841656004 2.4999999999999987
    vertex 17.64147322599281 48.539732841656004 -0.4999999999999998
  endloop
endfacet
facet normal 0.9914448613738104 0.13052619222005216 0.0
  outer loop
    vertex 17.64147322599281 48.539732841656004 2.4999999999999987
    vertex 17.539250704860013 49.31618997696357 -0.4999999999999998
    vertex 17.539250704860013 49.31618997696357 2.4999999999999987
  endloop
endfacet
facet normal 0.0 1.0 0.0
  outer loop
    vertex 71.1095582259927 34.764671040989 2.4999999999999987
    vertex 76.18406040946932 34.764671040989 -0.4999999999999998
    vertex 71.1095582259927 34.764671040989 -0.4999999999999998
  endloop
endfacet
facet normal 0.0 1.0 0.0
  outer loop
    vertex 76.18406040946932 34.764671040989 -0.4999999999999998
    vertex 71.1095582259927 34.764671040989 2.4999999999999987
    vertex 76.18406040946932 34.764671040989 2.4999999999999987
  endloop
endfacet
facet normal -1.0 0.0 0.0
  outer loop
    vertex 76.18406040946932 41.95220194132251 2.4999999999999987
    vertex 76.18406040946932 34.764671040989 -0.4999999999999998
    vertex 76.18406040946932 34.764671040989 2.4999999999999987
  endloop
endfacet
facet normal -1.0 0.0 0.0
  outer loop
    vertex 76.18406040946932 34.764671040989 -0.4999999999999998
    vertex 76.18406040946932 41.95220194132251 2.4999999999999987
    vertex 76.18406040946932 41.95220194132251 -0.4999999999999998
  endloop
endfacet
facet normal -1.0 0.0 0.0
  outer loop
    vertex 76.18406040946932 49.139732841656006 2.4999999999999987
    vertex 76.18406040946932 41.95220194132251 -0.4999999999999998
    vertex 76.18406040946932 41.95220194132251 2.4999999999999987
  endloop
endfacet
facet normal -1.0 0.0 0.0
  outer loop
    vertex 76.18406040946932 41.95220194132251 -0.4999999999999998
    vertex 76.18406040946932 49.139732841656006 2.4999999999999987
    vertex 76.18406040946932 49.139732841656006 -0.4999999999999998
  endloop
endfacet
facet normal 0.0 -1.0 0.0
  outer loop
    vertex 76.18406040946932 49.139732841656006 2.4999999999999987
    vertex 71.10955822599271 49.139732841656006 -0.4999999999999998
    vertex 76.18406040946932 49.139732841656006 -0.4999999999999998
  endloop
endfacet
facet normal 0.0 -1.0 0.0
  outer loop
    vertex 71.10955822599271 49.139732841656006 -0.4999999999999998
    vertex 76.18406040946932 49.139732841656006 2.4999999999999987
    vertex 71.10955822599271 49.139732841656006 2.4999999999999987
  endloop
endfacet
facet normal 0.13052619222005082 -0.9914448613738106 0.0
  outer loop
    vertex 71.10955822599271 49.139732841656006 2.4999999999999987
    vertex 70.72132965833892 49.08862158108961 -0.4999999999999998
    vertex 71.10955822599271 49.139732841656006 -0.4999999999999998
  endloop
endfacet
facet normal 0.25881904510251846 -0.965925826289069 0.0
  outer loop
    vertex 70.72132965833892 49.08862158108961 -0.4999999999999998
    vertex 71.10955822599271 49.139732841656006 2.4999999999999987
    vertex 70.72132965833892 49.08862158108961 2.4999999999999987
  endloop
endfacet
facet normal 0.25881904510251846 -0.965925826289069 0.0
  outer loop
    vertex 70.72132965833892 49.08862158108961 2.4999999999999987
    vertex 70.35955822599277 48.93877094733268 -0.4999999999999998
    vertex 70.72132965833892 49.08862158108961 -0.4999999999999998
  endloop
endfacet
facet normal 0.5000000000000011 -0.8660254037844379 0.0
  outer loop
    vertex 70.35955822599277 48.93877094733268 -0.4999999999999998
    vertex 70.72132965833892 49.08862158108961 2.4999999999999987
    vertex 70.35955822599277 48.93877094733268 2.4999999999999987
  endloop
endfacet
facet normal 0.5000000000000011 -0.8660254037844379 0.0
  outer loop
    vertex 70.35955822599277 48.93877094733268 2.4999999999999987
    vertex 70.0488980542129 48.70039301343585 -0.4999999999999998
    vertex 70.35955822599277 48.93877094733268 -0.4999999999999998
  endloop
endfacet
facet normal 0.7071067811865549 -0.70710678118654 0.0
  outer loop
    vertex 70.0488980542129 48.70039301343585 -0.4999999999999998
    vertex 70.35955822599277 48.93877094733268 2.4999999999999987
    vertex 70.0488980542129 48.70039301343585 2.4999999999999987
  endloop
endfacet
facet normal 0.7071067811865549 -0.70710678118654 0.0
  outer loop
    vertex 70.0488980542129 48.70039301343585 -0.4999999999999998
    vertex 69.81052012031608 48.38973284165601 2.4999999999999987
    vertex 69.81052012031608 48.38973284165601 -0.4999999999999998
  endloop
endfacet
facet normal 0.8660254037844433 -0.49999999999999206 0.0
  outer loop
    vertex 69.81052012031608 48.38973284165601 2.4999999999999987
    vertex 70.0488980542129 48.70039301343585 -0.4999999999999998
    vertex 70.0488980542129 48.70039301343585 2.4999999999999987
  endloop
endfacet
facet normal 0.8660254037844433 -0.49999999999999206 0.0
  outer loop
    vertex 69.81052012031608 48.38973284165601 -0.4999999999999998
    vertex 69.66066948655914 48.02796140930981 2.4999999999999987
    vertex 69.66066948655914 48.02796140930981 -0.4999999999999998
  endloop
endfacet
facet normal 0.9659258262890661 -0.25881904510252857 0.0
  outer loop
    vertex 69.66066948655914 48.02796140930981 2.4999999999999987
    vertex 69.81052012031608 48.38973284165601 -0.4999999999999998
    vertex 69.81052012031608 48.38973284165601 2.4999999999999987
  endloop
endfacet
facet normal 0.9659258262890661 -0.25881904510252857 0.0
  outer loop
    vertex 69.66066948655914 48.02796140930981 -0.4999999999999998
    vertex 69.60955822599279 47.63973284165602 2.4999999999999987
    vertex 69.60955822599279 47.63973284165602 -0.4999999999999998
  endloop
endfacet
facet normal 0.9914448613738078 -0.1305261922200719 0.0
  outer loop
    vertex 69.60955822599279 47.63973284165602 2.4999999999999987
    vertex 69.66066948655914 48.02796140930981 -0.4999999999999998
    vertex 69.66066948655914 48.02796140930981 2.4999999999999987
  endloop
endfacet
facet normal 1.0 0.0 0.0
  outer loop
    vertex 69.60955822599279 47.63973284165602 -0.4999999999999998
    vertex 69.60955822599279 40.45370384165602 2.4999999999999987
    vertex 69.60955822599279 40.45370384165602 -0.4999999999999998
  endloop
endfacet
facet normal 1.0 0.0 0.0
  outer loop
    vertex 69.60955822599279 40.45370384165602 2.4999999999999987
    vertex 69.60955822599279 47.63973284165602 -0.4999999999999998
    vertex 69.60955822599279 47.63973284165602 2.4999999999999987
  endloop
endfacet
facet normal 1.0 -4.039070520668497e-15 0.0
  outer loop
    vertex 69.60955822599279 40.45370384165602 -0.4999999999999998
    vertex 69.60955822599274 36.26467104098905 2.4999999999999987
    vertex 69.60955822599274 36.26467104098905 -0.4999999999999998
  endloop
endfacet
facet normal 1.0 -4.039070520668497e-15 0.0
  outer loop
    vertex 69.60955822599274 36.26467104098905 2.4999999999999987
    vertex 69.60955822599279 40.45370384165602 -0.4999999999999998
    vertex 69.60955822599279 40.45370384165602 2.4999999999999987
  endloop
endfacet
facet normal 0.9914448613738134 0.13052619222002934 0.0
  outer loop
    vertex 69.60955822599274 36.26467104098905 -0.4999999999999998
    vertex 69.6606694865591 35.87644247333526 2.4999999999999987
    vertex 69.6606694865591 35.87644247333526 -0.4999999999999998
  endloop
endfacet
facet normal 0.9659258262890665 0.25881904510252723 0.0
  outer loop
    vertex 69.6606694865591 35.87644247333526 2.4999999999999987
    vertex 69.60955822599274 36.26467104098905 -0.4999999999999998
    vertex 69.60955822599274 36.26467104098905 2.4999999999999987
  endloop
endfacet
facet normal 0.9659258262890665 0.25881904510252723 0.0
  outer loop
    vertex 69.6606694865591 35.87644247333526 -0.4999999999999998
    vertex 69.81052012031606 35.514671040989036 2.4999999999999987
    vertex 69.81052012031606 35.514671040989036 -0.4999999999999998
  endloop
endfacet
facet normal 0.8660254037844333 0.5000000000000093 0.0
  outer loop
    vertex 69.81052012031606 35.514671040989036 2.4999999999999987
    vertex 69.6606694865591 35.87644247333526 -0.4999999999999998
    vertex 69.6606694865591 35.87644247333526 2.4999999999999987
  endloop
endfacet
facet normal 0.8660254037844333 0.5000000000000093 0.0
  outer loop
    vertex 69.81052012031606 35.514671040989036 -0.4999999999999998
    vertex 70.04889805421287 35.20401086920918 2.4999999999999987
    vertex 70.04889805421287 35.20401086920918 -0.4999999999999998
  endloop
endfacet
facet normal 0.7071067811865549 0.70710678118654 0.0
  outer loop
    vertex 70.04889805421287 35.20401086920918 2.4999999999999987
    vertex 69.81052012031606 35.514671040989036 -0.4999999999999998
    vertex 69.81052012031606 35.514671040989036 2.4999999999999987
  endloop
endfacet
facet normal 0.7071067811865549 0.70710678118654 0.0
  outer loop
    vertex 70.04889805421287 35.20401086920918 2.4999999999999987
    vertex 70.35955822599274 34.965632935312385 -0.4999999999999998
    vertex 70.04889805421287 35.20401086920918 -0.4999999999999998
  endloop
endfacet
facet normal 0.5000000000000011 0.8660254037844379 0.0
  outer loop
    vertex 70.35955822599274 34.965632935312385 -0.4999999999999998
    vertex 70.04889805421287 35.20401086920918 2.4999999999999987
    vertex 70.35955822599274 34.965632935312385 2.4999999999999987
  endloop
endfacet
facet normal 0.5000000000000011 0.8660254037844379 0.0
  outer loop
    vertex 70.35955822599274 34.965632935312385 2.4999999999999987
    vertex 70.72132965833892 34.8157823015554 -0.4999999999999998
    vertex 70.35955822599274 34.965632935312385 -0.4999999999999998
  endloop
endfacet
facet normal 0.25881904510251846 0.965925826289069 0.0
  outer loop
    vertex 70.72132965833892 34.8157823015554 -0.4999999999999998
    vertex 70.35955822599274 34.965632935312385 2.4999999999999987
    vertex 70.72132965833892 34.8157823015554 2.4999999999999987
  endloop
endfacet
facet normal 0.25881904510251846 0.965925826289069 0.0
  outer loop
    vertex 70.72132965833892 34.8157823015554 2.4999999999999987
    vertex 71.1095582259927 34.764671040989 -0.4999999999999998
    vertex 70.72132965833892 34.8157823015554 -0.4999999999999998
  endloop
endfacet
facet normal 0.13052619222005082 0.9914448613738106 0.0
  outer loop
    vertex 71.1095582259927 34.764671040989 -0.4999999999999998
    vertex 70.72132965833892 34.8157823015554 2.4999999999999987
    vertex 71.1095582259927 34.764671040989 2.4999999999999987
  endloop
endfacet
facet normal 0.0 0.0 1.0
  outer loop
    vertex 14.5628210706146 33.56767484165601 0.39999999999999947
    vertex -4.325672774007182 50.33973284165601 0.39999999999999947
    vertex -4.325672774007182 33.56767484165598 0.39999999999999947
  endloop
endfacet
facet normal 0.0 0.0 1.0
  outer loop
    vertex -4.325672774007182 50.33973284165601 0.39999999999999947
    vertex 14.5628210706146 33.56767484165601 0.39999999999999947
    vertex 14.562821070614545 50.33973284165601 0.39999999999999947
  endloop
endfacet
facet normal 0.0 0.0 1.0
  outer loop
    vertex 14.562821070614545 50.33973284165601 0.39999999999999947
    vertex 14.5628210706146 33.56767484165601 0.39999999999999947
    vertex 15.104667499972273 50.26839740592227 0.39999999999999947
  endloop
endfacet
facet normal 0.0 0.0 1.0
  outer loop
    vertex 15.104667499972273 50.26839740592227 0.39999999999999947
    vertex 14.5628210706146 33.56767484165601 0.39999999999999947
    vertex 15.104667499972273 33.63901027738978 0.39999999999999947
  endloop
endfacet
facet normal 0.0 0.0 1.0
  outer loop
    vertex 15.104667499972273 50.26839740592227 0.39999999999999947
    vertex 15.104667499972273 33.63901027738978 0.39999999999999947
    vertex 15.536295849644693 33.8177965937288 0.39999999999999947
  endloop
endfacet
facet normal 0.0 0.0 1.0
  outer loop
    vertex 15.104667499972273 50.26839740592227 0.39999999999999947
    vertex 15.536295849644693 33.8177965937288 0.39999999999999947
    vertex 15.536295849644693 50.089611089583244 0.39999999999999947
  endloop
endfacet
facet normal 0.0 0.0 1.0
  outer loop
    vertex 15.536295849644693 50.089611089583244 0.39999999999999947
    vertex 15.536295849644693 33.8177965937288 0.39999999999999947
    vertex 15.906943516279622 34.10220455136924 0.39999999999999947
  endloop
endfacet
facet normal 0.0 0.0 1.0
  outer loop
    vertex 15.536295849644693 50.089611089583244 0.39999999999999947
    vertex 15.906943516279622 34.10220455136924 0.39999999999999947
    vertex 15.906943516279616 49.80520313194284 0.39999999999999947
  endloop
endfacet
facet normal 0.0 0.0 1.0
  outer loop
    vertex 15.906943516279616 49.80520313194284 0.39999999999999947
    vertex 15.906943516279622 34.10220455136924 0.39999999999999947
    vertex 16.19135147392001 49.43455546530792 0.39999999999999947
  endloop
endfacet
facet normal 0.0 0.0 1.0
  outer loop
    vertex 16.19135147392001 49.43455546530792 0.39999999999999947
    vertex 15.906943516279622 34.10220455136924 0.39999999999999947
    vertex 16.19135147392001 34.47285221800411 0.39999999999999947
  endloop
endfacet
facet normal 0.0 0.0 1.0
  outer loop
    vertex 16.19135147392001 49.43455546530792 0.39999999999999947
    vertex 16.19135147392001 34.47285221800411 0.39999999999999947
    vertex 16.37013779025906 34.90448056767657 0.39999999999999947
  endloop
endfacet
facet normal 0.0 0.0 1.0
  outer loop
    vertex 16.19135147392001 49.43455546530792 0.39999999999999947
    vertex 16.37013779025906 34.90448056767657 0.39999999999999947
    vertex 16.37013779025906 49.002927115635444 0.39999999999999947
  endloop
endfacet
facet normal 0.0 0.0 1.0
  outer loop
    vertex 16.37013779025906 49.002927115635444 0.39999999999999947
    vertex 16.37013779025906 34.90448056767657 0.39999999999999947
    vertex 16.441473225992812 35.44632699703426 0.39999999999999947
  endloop
endfacet
facet normal 0.0 0.0 1.0
  outer loop
    vertex 16.37013779025906 49.002927115635444 0.39999999999999947
    vertex 16.441473225992812 35.44632699703426 0.39999999999999947
    vertex 16.441473225992812 48.46108068627773 0.39999999999999947
  endloop
endfacet
facet normal 3.538743094205463e-33 -5.6830358599159515e-33 1.0
  outer loop
    vertex 67.34244750346534 35.25527676508918 2.4999999999999987
    vertex 67.20955822599277 40.45370384165602 2.4999999999999987
    vertex 67.20955822599275 36.26467104098905 2.4999999999999987
  endloop
endfacet
facet normal 3.538743094205463e-33 -5.6830358599159515e-33 1.0
  outer loop
    vertex 67.20955822599277 40.45370384165602 2.4999999999999987
    vertex 67.34244750346534 35.25527676508918 2.4999999999999987
    vertex 67.20955822599277 43.45370384165604 2.4999999999999987
  endloop
endfacet
facet normal 3.538743094205463e-33 -5.6830358599159515e-33 1.0
  outer loop
    vertex 67.20955822599277 43.45370384165604 2.4999999999999987
    vertex 67.34244750346534 35.25527676508918 2.4999999999999987
    vertex 67.20955822599277 47.63973284165602 2.4999999999999987
  endloop
endfacet
facet normal 3.538743094205463e-33 -5.6830358599159515e-33 1.0
  outer loop
    vertex 67.20955822599277 47.63973284165602 2.4999999999999987
    vertex 67.34244750346534 35.25527676508918 2.4999999999999987
    vertex 67.34244750346535 48.64912711755585 2.4999999999999987
  endloop
endfacet
facet normal 3.538743094205463e-33 -5.6830358599159515e-33 1.0
  outer loop
    vertex 67.34244750346535 48.64912711755585 2.4999999999999987
    vertex 67.34244750346534 35.25527676508918 2.4999999999999987
    vertex 67.73205915123341 34.314671040989 2.4999999999999987
  endloop
endfacet
facet normal 3.538743094205463e-33 -5.6830358599159515e-33 1.0
  outer loop
    vertex 67.34244750346535 48.64912711755585 2.4999999999999987
    vertex 67.73205915123341 34.314671040989 2.4999999999999987
    vertex 67.73205915123341 49.58973284165603 2.4999999999999987
  endloop
endfacet
facet normal 3.538743094205463e-33 -5.6830358599159515e-33 1.0
  outer loop
    vertex 67.73205915123341 49.58973284165603 2.4999999999999987
    vertex 67.73205915123341 34.314671040989 2.4999999999999987
    vertex 68.35184177936522 33.5069545943615 2.4999999999999987
  endloop
endfacet
facet normal 3.538743094205463e-33 -5.6830358599159515e-33 1.0
  outer loop
    vertex 67.73205915123341 49.58973284165603 2.4999999999999987
    vertex 68.35184177936522 33.5069545943615 2.4999999999999987
    vertex 68.35184177936524 50.39744928828355 2.4999999999999987
  endloop
endfacet
facet normal 3.538743094205463e-33 -5.6830358599159515e-33 1.0
  outer loop
    vertex 68.35184177936524 50.39744928828355 2.4999999999999987
    vertex 68.35184177936522 33.5069545943615 2.4999999999999987
    vertex 69.15955822599274 32.8871719662297 2.4999999999999987
  endloop
endfacet
facet normal 3.538743094205463e-33 -5.6830358599159515e-33 1.0
  outer loop
    vertex 68.35184177936524 50.39744928828355 2.4999999999999987
    vertex 69.15955822599274 32.8871719662297 2.4999999999999987
    vertex 69.15955822599275 51.01723191641532 2.4999999999999987
  endloop
endfacet
facet normal 3.538743094205463e-33 -5.6830358599159515e-33 1.0
  outer loop
    vertex 69.15955822599275 51.01723191641532 2.4999999999999987
    vertex 69.15955822599274 32.8871719662297 2.4999999999999987
    vertex 69.60955822599274 36.26467104098905 2.4999999999999987
  endloop
endfacet
facet normal 3.538743094205463e-33 -5.6830358599159515e-33 1.0
  outer loop
    vertex 69.60955822599274 36.26467104098905 2.4999999999999987
    vertex 69.15955822599274 32.8871719662297 2.4999999999999987
    vertex 70.1001639500929 32.49756031846165 2.4999999999999987
  endloop
endfacet
facet normal 3.538743094205463e-33 -5.6830358599159515e-33 1.0
  outer loop
    vertex 69.60955822599274 36.26467104098905 2.4999999999999987
    vertex 70.1001639500929 32.49756031846165 2.4999999999999987
    vertex 69.6606694865591 35.87644247333526 2.4999999999999987
  endloop
endfacet
facet normal 3.538743094205463e-33 -5.6830358599159515e-33 1.0
  outer loop
    vertex 69.6606694865591 35.87644247333526 2.4999999999999987
    vertex 70.1001639500929 32.49756031846165 2.4999999999999987
    vertex 69.81052012031606 35.514671040989036 2.4999999999999987
  endloop
endfacet
facet normal 3.538743094205463e-33 -5.6830358599159515e-33 1.0
  outer loop
    vertex 69.81052012031606 35.514671040989036 2.4999999999999987
    vertex 70.1001639500929 32.49756031846165 2.4999999999999987
    vertex 70.04889805421287 35.20401086920918 2.4999999999999987
  endloop
endfacet
facet normal 3.538743094205463e-33 -5.6830358599159515e-33 1.0
  outer loop
    vertex 70.04889805421287 35.20401086920918 2.4999999999999987
    vertex 70.1001639500929 32.49756031846165 2.4999999999999987
    vertex 70.35955822599274 34.965632935312385 2.4999999999999987
  endloop
endfacet
facet normal 3.538743094205463e-33 -5.6830358599159515e-33 1.0
  outer loop
    vertex 70.35955822599274 34.965632935312385 2.4999999999999987
    vertex 70.1001639500929 32.49756031846165 2.4999999999999987
    vertex 71.1095582259927 32.36467104098902 2.4999999999999987
  endloop
endfacet
facet normal 3.538743094205463e-33 -5.6830358599159515e-33 1.0
  outer loop
    vertex 70.35955822599274 34.965632935312385 2.4999999999999987
    vertex 71.1095582259927 32.36467104098902 2.4999999999999987
    vertex 70.72132965833892 34.8157823015554 2.4999999999999987
  endloop
endfacet
facet normal 3.538743094205463e-33 -5.6830358599159515e-33 1.0
  outer loop
    vertex 70.72132965833892 34.8157823015554 2.4999999999999987
    vertex 71.1095582259927 32.36467104098902 2.4999999999999987
    vertex 71.1095582259927 34.764671040989 2.4999999999999987
  endloop
endfacet
facet normal 3.538743094205463e-33 -5.6830358599159515e-33 1.0
  outer loop
    vertex 71.1095582259927 34.764671040989 2.4999999999999987
    vertex 71.1095582259927 32.36467104098902 2.4999999999999987
    vertex 77.08406040946932 32.36467104098902 2.4999999999999987
  endloop
endfacet
facet normal 3.538743094205463e-33 -5.6830358599159515e-33 1.0
  outer loop
    vertex 71.1095582259927 34.764671040989 2.4999999999999987
    vertex 77.08406040946932 32.36467104098902 2.4999999999999987
    vertex 76.18406040946932 34.764671040989 2.4999999999999987
  endloop
endfacet
facet normal 3.538743094205463e-33 -5.6830358599159515e-33 1.0
  outer loop
    vertex 76.18406040946932 34.764671040989 2.4999999999999987
    vertex 77.08406040946932 32.36467104098902 2.4999999999999987
    vertex 76.18406040946932 41.95220194132251 2.4999999999999987
  endloop
endfacet
facet normal 3.538743094205463e-33 -5.6830358599159515e-33 1.0
  outer loop
    vertex 76.18406040946932 41.95220194132251 2.4999999999999987
    vertex 77.08406040946932 32.36467104098902 2.4999999999999987
    vertex 76.18406040946932 49.139732841656006 2.4999999999999987
  endloop
endfacet
facet normal 3.538743094205463e-33 -5.6830358599159515e-33 1.0
  outer loop
    vertex 69.15955822599275 51.01723191641532 2.4999999999999987
    vertex 69.60955822599279 47.63973284165602 2.4999999999999987
    vertex 70.10016395009292 51.40684356418334 2.4999999999999987
  endloop
endfacet
facet normal 3.538743094205463e-33 -5.6830358599159515e-33 1.0
  outer loop
    vertex 69.60955822599279 47.63973284165602 2.4999999999999987
    vertex 69.15955822599275 51.01723191641532 2.4999999999999987
    vertex 69.60955822599274 36.26467104098905 2.4999999999999987
  endloop
endfacet
facet normal 3.538743094205463e-33 -5.6830358599159515e-33 1.0
  outer loop
    vertex 69.60955822599279 47.63973284165602 2.4999999999999987
    vertex 69.60955822599274 36.26467104098905 2.4999999999999987
    vertex 69.60955822599279 40.45370384165602 2.4999999999999987
  endloop
endfacet
facet normal 3.538743094205463e-33 -5.6830358599159515e-33 1.0
  outer loop
    vertex 70.10016395009292 51.40684356418334 2.4999999999999987
    vertex 69.60955822599279 47.63973284165602 2.4999999999999987
    vertex 69.66066948655914 48.02796140930981 2.4999999999999987
  endloop
endfacet
facet normal 3.538743094205463e-33 -5.6830358599159515e-33 1.0
  outer loop
    vertex 70.10016395009292 51.40684356418334 2.4999999999999987
    vertex 69.66066948655914 48.02796140930981 2.4999999999999987
    vertex 69.81052012031608 48.38973284165601 2.4999999999999987
  endloop
endfacet
facet normal 3.538743094205463e-33 -5.6830358599159515e-33 1.0
  outer loop
    vertex 70.10016395009292 51.40684356418334 2.4999999999999987
    vertex 69.81052012031608 48.38973284165601 2.4999999999999987
    vertex 70.0488980542129 48.70039301343585 2.4999999999999987
  endloop
endfacet
facet normal 3.538743094205463e-33 -5.6830358599159515e-33 1.0
  outer loop
    vertex 70.10016395009292 51.40684356418334 2.4999999999999987
    vertex 70.0488980542129 48.70039301343585 2.4999999999999987
    vertex 70.35955822599277 48.93877094733268 2.4999999999999987
  endloop
endfacet
facet normal 3.538743094205463e-33 -5.6830358599159515e-33 1.0
  outer loop
    vertex 70.10016395009292 51.40684356418334 2.4999999999999987
    vertex 70.35955822599277 48.93877094733268 2.4999999999999987
    vertex 71.10955822599271 51.539732841656026 2.4999999999999987
  endloop
endfacet
facet normal 3.538743094205463e-33 -5.6830358599159515e-33 1.0
  outer loop
    vertex 71.10955822599271 51.539732841656026 2.4999999999999987
    vertex 70.35955822599277 48.93877094733268 2.4999999999999987
    vertex 70.72132965833892 49.08862158108961 2.4999999999999987
  endloop
endfacet
facet normal 3.538743094205463e-33 -5.6830358599159515e-33 1.0
  outer loop
    vertex 71.10955822599271 51.539732841656026 2.4999999999999987
    vertex 70.72132965833892 49.08862158108961 2.4999999999999987
    vertex 71.10955822599271 49.139732841656006 2.4999999999999987
  endloop
endfacet
facet normal 3.538743094205463e-33 -5.6830358599159515e-33 1.0
  outer loop
    vertex 71.10955822599271 51.539732841656026 2.4999999999999987
    vertex 71.10955822599271 49.139732841656006 2.4999999999999987
    vertex 76.18406040946932 49.139732841656006 2.4999999999999987
  endloop
endfacet
facet normal 3.538743094205463e-33 -5.6830358599159515e-33 1.0
  outer loop
    vertex 71.10955822599271 51.539732841656026 2.4999999999999987
    vertex 76.18406040946932 49.139732841656006 2.4999999999999987
    vertex 77.08406040946932 51.539732841656026 2.4999999999999987
  endloop
endfacet
facet normal 3.538743094205463e-33 -5.6830358599159515e-33 1.0
  outer loop
    vertex 77.08406040946932 51.539732841656026 2.4999999999999987
    vertex 76.18406040946932 49.139732841656006 2.4999999999999987
    vertex 77.08406040946932 32.36467104098902 2.4999999999999987
  endloop
endfacet
facet normal 3.538743094205463e-33 -5.6830358599159515e-33 1.0
  outer loop
    vertex 77.08406040946932 51.539732841656026 2.4999999999999987
    vertex 77.08406040946932 32.36467104098902 2.4999999999999987
    vertex 77.47228897712307 32.41578230155545 2.4999999999999987
  endloop
endfacet
facet normal 3.538743094205463e-33 -5.6830358599159515e-33 1.0
  outer loop
    vertex 77.08406040946932 51.539732841656026 2.4999999999999987
    vertex 77.47228897712307 32.41578230155545 2.4999999999999987
    vertex 77.47228897712307 51.48862158108965 2.4999999999999987
  endloop
endfacet
facet normal 3.538743094205463e-33 -5.6830358599159515e-33 1.0
  outer loop
    vertex 77.47228897712307 51.48862158108965 2.4999999999999987
    vertex 77.47228897712307 32.41578230155545 2.4999999999999987
    vertex 77.83406040946937 32.565632935312344 2.4999999999999987
  endloop
endfacet
facet normal 3.538743094205463e-33 -5.6830358599159515e-33 1.0
  outer loop
    vertex 77.47228897712307 51.48862158108965 2.4999999999999987
    vertex 77.83406040946937 32.565632935312344 2.4999999999999987
    vertex 77.83406040946937 51.338770947332655 2.4999999999999987
  endloop
endfacet
facet normal 3.538743094205463e-33 -5.6830358599159515e-33 1.0
  outer loop
    vertex 77.83406040946937 51.338770947332655 2.4999999999999987
    vertex 77.83406040946937 32.565632935312344 2.4999999999999987
    vertex 78.14472058124916 32.80401086920924 2.4999999999999987
  endloop
endfacet
facet normal 3.538743094205463e-33 -5.6830358599159515e-33 1.0
  outer loop
    vertex 77.83406040946937 51.338770947332655 2.4999999999999987
    vertex 78.14472058124916 32.80401086920924 2.4999999999999987
    vertex 78.14472058124916 51.10039301343585 2.4999999999999987
  endloop
endfacet
facet normal 3.538743094205463e-33 -5.6830358599159515e-33 1.0
  outer loop
    vertex 78.14472058124916 51.10039301343585 2.4999999999999987
    vertex 78.14472058124916 32.80401086920924 2.4999999999999987
    vertex 78.38309851514597 33.114671040989016 2.4999999999999987
  endloop
endfacet
facet normal 3.538743094205463e-33 -5.6830358599159515e-33 1.0
  outer loop
    vertex 78.14472058124916 51.10039301343585 2.4999999999999987
    vertex 78.38309851514597 33.114671040989016 2.4999999999999987
    vertex 78.38309851514597 50.78973284165602 2.4999999999999987
  endloop
endfacet
facet normal 3.538743094205463e-33 -5.6830358599159515e-33 1.0
  outer loop
    vertex 78.38309851514597 50.78973284165602 2.4999999999999987
    vertex 78.38309851514597 33.114671040989016 2.4999999999999987
    vertex 78.53294914890293 33.47644247333523 2.4999999999999987
  endloop
endfacet
facet normal 3.538743094205463e-33 -5.6830358599159515e-33 1.0
  outer loop
    vertex 78.38309851514597 50.78973284165602 2.4999999999999987
    vertex 78.53294914890293 33.47644247333523 2.4999999999999987
    vertex 78.53294914890293 50.42796140930981 2.4999999999999987
  endloop
endfacet
facet normal 3.538743094205463e-33 -5.6830358599159515e-33 1.0
  outer loop
    vertex 78.53294914890293 50.42796140930981 2.4999999999999987
    vertex 78.53294914890293 33.47644247333523 2.4999999999999987
    vertex 78.58406040946929 33.86467104098902 2.4999999999999987
  endloop
endfacet
facet normal 3.538743094205463e-33 -5.6830358599159515e-33 1.0
  outer loop
    vertex 78.53294914890293 50.42796140930981 2.4999999999999987
    vertex 78.58406040946929 33.86467104098902 2.4999999999999987
    vertex 78.58406040946929 50.03973284165602 2.4999999999999987
  endloop
endfacet
facet normal 3.538743094205463e-33 -5.6830358599159515e-33 1.0
  outer loop
    vertex 14.641473225992819 32.36767484165599 2.4999999999999987
    vertex 15.104667499972273 33.63901027738978 2.4999999999999987
    vertex 14.5628210706146 33.56767484165601 2.4999999999999987
  endloop
endfacet
facet normal 3.538743094205463e-33 -5.6830358599159515e-33 1.0
  outer loop
    vertex 15.104667499972273 33.63901027738978 2.4999999999999987
    vertex 14.641473225992819 32.36767484165599 2.4999999999999987
    vertex 15.417930361300378 32.469897362788785 2.4999999999999987
  endloop
endfacet
facet normal 3.538743094205463e-33 -5.6830358599159515e-33 1.0
  outer loop
    vertex 15.104667499972273 33.63901027738978 2.4999999999999987
    vertex 15.417930361300378 32.469897362788785 2.4999999999999987
    vertex 15.536295849644693 33.8177965937288 2.4999999999999987
  endloop
endfacet
facet normal 3.538743094205463e-33 -5.6830358599159515e-33 1.0
  outer loop
    vertex 15.536295849644693 33.8177965937288 2.4999999999999987
    vertex 15.417930361300378 32.469897362788785 2.4999999999999987
    vertex 16.141473225992808 32.7695986303027 2.4999999999999987
  endloop
endfacet
facet normal 3.538743094205463e-33 -5.6830358599159515e-33 1.0
  outer loop
    vertex 15.536295849644693 33.8177965937288 2.4999999999999987
    vertex 16.141473225992808 32.7695986303027 2.4999999999999987
    vertex 15.906943516279622 34.10220455136924 2.4999999999999987
  endloop
endfacet
facet normal 3.538743094205463e-33 -5.6830358599159515e-33 1.0
  outer loop
    vertex 15.906943516279622 34.10220455136924 2.4999999999999987
    vertex 16.141473225992808 32.7695986303027 2.4999999999999987
    vertex 16.19135147392001 34.47285221800411 2.4999999999999987
  endloop
endfacet
facet normal 3.538743094205463e-33 -5.6830358599159515e-33 1.0
  outer loop
    vertex 16.19135147392001 34.47285221800411 2.4999999999999987
    vertex 16.141473225992808 32.7695986303027 2.4999999999999987
    vertex 16.762793569552464 33.246354498096366 2.4999999999999987
  endloop
endfacet
facet normal 3.538743094205463e-33 -5.6830358599159515e-33 1.0
  outer loop
    vertex 16.19135147392001 34.47285221800411 2.4999999999999987
    vertex 16.762793569552464 33.246354498096366 2.4999999999999987
    vertex 16.37013779025906 34.90448056767657 2.4999999999999987
  endloop
endfacet
facet normal 3.538743094205463e-33 -5.6830358599159515e-33 1.0
  outer loop
    vertex 16.37013779025906 34.90448056767657 2.4999999999999987
    vertex 16.762793569552464 33.246354498096366 2.4999999999999987
    vertex 16.441473225992812 35.44632699703426 2.4999999999999987
  endloop
endfacet
facet normal 3.538743094205463e-33 -5.6830358599159515e-33 1.0
  outer loop
    vertex 16.441473225992812 35.44632699703426 2.4999999999999987
    vertex 16.762793569552464 33.246354498096366 2.4999999999999987
    vertex 16.441473225992812 48.46108068627773 2.4999999999999987
  endloop
endfacet
facet normal 3.538743094205463e-33 -5.6830358599159515e-33 1.0
  outer loop
    vertex 15.104667499972273 50.26839740592227 2.4999999999999987
    vertex 14.641473225992819 51.539732841656026 2.4999999999999987
    vertex 14.562821070614545 50.33973284165601 2.4999999999999987
  endloop
endfacet
facet normal 3.538743094205463e-33 -5.6830358599159515e-33 1.0
  outer loop
    vertex 14.641473225992819 51.539732841656026 2.4999999999999987
    vertex 15.104667499972273 50.26839740592227 2.4999999999999987
    vertex 15.417930361300394 51.437510320523245 2.4999999999999987
  endloop
endfacet
facet normal 3.538743094205463e-33 -5.6830358599159515e-33 1.0
  outer loop
    vertex 15.417930361300394 51.437510320523245 2.4999999999999987
    vertex 15.104667499972273 50.26839740592227 2.4999999999999987
    vertex 15.536295849644693 50.089611089583244 2.4999999999999987
  endloop
endfacet
facet normal 3.538743094205463e-33 -5.6830358599159515e-33 1.0
  outer loop
    vertex 15.417930361300394 51.437510320523245 2.4999999999999987
    vertex 15.536295849644693 50.089611089583244 2.4999999999999987
    vertex 16.141473225992808 51.1378090530093 2.4999999999999987
  endloop
endfacet
facet normal 3.538743094205463e-33 -5.6830358599159515e-33 1.0
  outer loop
    vertex 16.141473225992808 51.1378090530093 2.4999999999999987
    vertex 15.536295849644693 50.089611089583244 2.4999999999999987
    vertex 15.906943516279616 49.80520313194284 2.4999999999999987
  endloop
endfacet
facet normal 3.538743094205463e-33 -5.6830358599159515e-33 1.0
  outer loop
    vertex 16.141473225992808 51.1378090530093 2.4999999999999987
    vertex 15.906943516279616 49.80520313194284 2.4999999999999987
    vertex 16.19135147392001 49.43455546530792 2.4999999999999987
  endloop
endfacet
facet normal 3.538743094205463e-33 -5.6830358599159515e-33 1.0
  outer loop
    vertex 16.141473225992808 51.1378090530093 2.4999999999999987
    vertex 16.19135147392001 49.43455546530792 2.4999999999999987
    vertex 16.762793569552464 50.661053185215636 2.4999999999999987
  endloop
endfacet
facet normal 3.538743094205463e-33 -5.6830358599159515e-33 1.0
  outer loop
    vertex 16.762793569552464 50.661053185215636 2.4999999999999987
    vertex 16.19135147392001 49.43455546530792 2.4999999999999987
    vertex 16.37013779025906 49.002927115635444 2.4999999999999987
  endloop
endfacet
facet normal 3.538743094205463e-33 -5.6830358599159515e-33 1.0
  outer loop
    vertex 16.762793569552464 50.661053185215636 2.4999999999999987
    vertex 16.37013779025906 49.002927115635444 2.4999999999999987
    vertex 16.441473225992812 48.46108068627773 2.4999999999999987
  endloop
endfacet
facet normal 3.538743094205463e-33 -5.6830358599159515e-33 1.0
  outer loop
    vertex 16.762793569552464 50.661053185215636 2.4999999999999987
    vertex 16.441473225992812 48.46108068627773 2.4999999999999987
    vertex 16.762793569552464 33.246354498096366 2.4999999999999987
  endloop
endfacet
facet normal 3.538743094205463e-33 -5.6830358599159515e-33 1.0
  outer loop
    vertex 16.762793569552464 50.661053185215636 2.4999999999999987
    vertex 16.762793569552464 33.246354498096366 2.4999999999999987
    vertex 17.239549437346128 33.86767484165602 2.4999999999999987
  endloop
endfacet
facet normal 3.538743094205463e-33 -5.6830358599159515e-33 1.0
  outer loop
    vertex 16.762793569552464 50.661053185215636 2.4999999999999987
    vertex 17.239549437346128 33.86767484165602 2.4999999999999987
    vertex 17.239549437346128 50.03973284165602 2.4999999999999987
  endloop
endfacet
facet normal 3.538743094205463e-33 -5.6830358599159515e-33 1.0
  outer loop
    vertex 17.239549437346128 50.03973284165602 2.4999999999999987
    vertex 17.239549437346128 33.86767484165602 2.4999999999999987
    vertex 17.539250704860013 34.59121770634846 2.4999999999999987
  endloop
endfacet
facet normal 3.538743094205463e-33 -5.6830358599159515e-33 1.0
  outer loop
    vertex 17.239549437346128 50.03973284165602 2.4999999999999987
    vertex 17.539250704860013 34.59121770634846 2.4999999999999987
    vertex 17.539250704860013 49.31618997696357 2.4999999999999987
  endloop
endfacet
facet normal 3.538743094205463e-33 -5.6830358599159515e-33 1.0
  outer loop
    vertex 17.539250704860013 49.31618997696357 2.4999999999999987
    vertex 17.539250704860013 34.59121770634846 2.4999999999999987
    vertex 17.64147322599281 35.36767484165603 2.4999999999999987
  endloop
endfacet
facet normal 3.538743094205463e-33 -5.6830358599159515e-33 1.0
  outer loop
    vertex 17.539250704860013 49.31618997696357 2.4999999999999987
    vertex 17.64147322599281 35.36767484165603 2.4999999999999987
    vertex 17.641473225992808 40.45370384165602 2.4999999999999987
  endloop
endfacet
facet normal 3.538743094205463e-33 -5.6830358599159515e-33 1.0
  outer loop
    vertex 67.20955822599277 40.45370384165602 2.4999999999999987
    vertex 17.641473225992808 43.45370384165604 2.4999999999999987
    vertex 17.641473225992808 40.45370384165602 2.4999999999999987
  endloop
endfacet
facet normal 3.538743094205463e-33 -5.6830358599159515e-33 1.0
  outer loop
    vertex 17.641473225992808 43.45370384165604 2.4999999999999987
    vertex 67.20955822599277 40.45370384165602 2.4999999999999987
    vertex 67.20955822599277 43.45370384165604 2.4999999999999987
  endloop
endfacet
facet normal 3.538743094205463e-33 -5.6830358599159515e-33 1.0
  outer loop
    vertex 17.539250704860013 49.31618997696357 2.4999999999999987
    vertex 17.641473225992808 43.45370384165604 2.4999999999999987
    vertex 17.64147322599281 48.539732841656004 2.4999999999999987
  endloop
endfacet
facet normal 3.538743094205463e-33 -5.6830358599159515e-33 1.0
  outer loop
    vertex 17.641473225992808 43.45370384165604 2.4999999999999987
    vertex 17.539250704860013 49.31618997696357 2.4999999999999987
    vertex 17.641473225992808 40.45370384165602 2.4999999999999987
  endloop
endfacet
facet normal 0.0 -1.0 0.0
  outer loop
    vertex 14.641473225992819 32.36767484165599 2.4999999999999987
    vertex -4.325672774007182 32.36767484165599 -0.4999999999999998
    vertex 14.641473225992819 32.36767484165599 -0.4999999999999998
  endloop
endfacet
facet normal 0.0 -1.0 0.0
  outer loop
    vertex -4.325672774007182 32.36767484165599 -0.4999999999999998
    vertex 14.641473225992819 32.36767484165599 2.4999999999999987
    vertex -4.325672774007182 32.36767484165599 0.39999999999999947
  endloop
endfacet
facet normal -0.11004532765604956 0.0 0.9939265696524432
  outer loop
    vertex 14.641473225992819 32.36767484165599 2.4999999999999987
    vertex -4.325672774007182 33.56767484165598 0.39999999999999947
    vertex -4.325672774007182 32.36767484165599 0.39999999999999947
  endloop
endfacet
facet normal -0.11049507782315354 -0.007242230024563631 0.9938502844398277
  outer loop
    vertex 14.641473225992819 32.36767484165599 2.4999999999999987
    vertex 14.5628210706146 33.56767484165601 2.4999999999999987
    vertex -4.325672774007182 33.56767484165598 0.39999999999999947
  endloop
endfacet
facet normal -1.0 0.0 0.0
  outer loop
    vertex -4.325672774007182 33.56767484165598 0.39999999999999947
    vertex -4.325672774007182 32.36767484165599 -0.4999999999999998
    vertex -4.325672774007182 32.36767484165599 0.39999999999999947
  endloop
endfacet
facet normal -1.0 0.0 0.0
  outer loop
    vertex -4.325672774007182 32.36767484165599 -0.4999999999999998
    vertex -4.325672774007182 33.56767484165598 0.39999999999999947
    vertex -4.325672774007182 51.539732841656026 -0.4999999999999998
  endloop
endfacet
facet normal -1.0 0.0 0.0
  outer loop
    vertex -4.325672774007182 51.539732841656026 -0.4999999999999998
    vertex -4.325672774007182 33.56767484165598 0.39999999999999947
    vertex -4.325672774007182 50.33973284165601 0.39999999999999947
  endloop
endfacet
facet normal -1.0 0.0 0.0
  outer loop
    vertex -4.325672774007182 51.539732841656026 -0.4999999999999998
    vertex -4.325672774007182 50.33973284165601 0.39999999999999947
    vertex -4.325672774007182 51.539732841656026 0.39999999999999947
  endloop
endfacet
facet normal -4.47886396725727e-16 1.0 -3.868997062613906e-31
  outer loop
    vertex 14.5628210706146 33.56767484165601 2.4999999999999987
    vertex 14.5628210706146 33.56767484165601 0.39999999999999947
    vertex -4.325672774007182 33.56767484165598 0.39999999999999947
  endloop
endfacet
facet normal -0.0 1.0 -0.0
  outer loop
    vertex -4.325672774007182 51.539732841656026 0.39999999999999947
    vertex 14.641473225992819 51.539732841656026 -0.4999999999999998
    vertex -4.325672774007182 51.539732841656026 -0.4999999999999998
  endloop
endfacet
facet normal -0.0 1.0 -0.0
  outer loop
    vertex 14.641473225992819 51.539732841656026 -0.4999999999999998
    vertex -4.325672774007182 51.539732841656026 0.39999999999999947
    vertex 14.641473225992819 51.539732841656026 2.4999999999999987
  endloop
endfacet
facet normal 0.0 -1.0 0.0
  outer loop
    vertex 14.562821070614545 50.33973284165601 2.4999999999999987
    vertex -4.325672774007182 50.33973284165601 0.39999999999999947
    vertex 14.562821070614545 50.33973284165601 0.39999999999999947
  endloop
endfacet
facet normal -0.11049797566480318 -1.657359223559404e-16 0.9938763491370446
  outer loop
    vertex 14.562821070614545 50.33973284165601 2.4999999999999987
    vertex -4.325672774007182 51.539732841656026 0.39999999999999947
    vertex -4.325672774007182 50.33973284165601 0.39999999999999947
  endloop
endfacet
facet normal -0.11004246528027282 0.007212564231194087 0.9939007167480317
  outer loop
    vertex 14.641473225992819 51.539732841656026 2.4999999999999987
    vertex -4.325672774007182 51.539732841656026 0.39999999999999947
    vertex 14.562821070614545 50.33973284165601 2.4999999999999987
  endloop
endfacet
endsolid Beach Spade
