# 3ds Max Wavefront OBJ Exporter v0.97b - (c)2007 guruware
# File Created: 20.11.2018 13:59:58

mtllib spade.mtl

#
# object Layer0_001
#

v  3.2030 -0.1500 -0.9065
v  3.2480 -0.1500 -0.5688
v  3.2480 -0.1500 0.5688
v  3.2971 -0.1500 -0.9455
v  3.2531 -0.1500 -0.6076
v  3.2681 -0.1500 -0.6438
v  3.2920 -0.1500 -0.6748
v  3.3230 -0.1500 -0.6987
v  3.3980 -0.1500 -0.9588
v  3.3592 -0.1500 -0.7136
v  3.3980 -0.1500 -0.7188
v  3.9955 -0.1500 -0.9588
v  3.9055 -0.1500 -0.7188
v  3.9055 -0.1500 -0.0000
v  3.9055 -0.1500 0.7188
v  3.0213 -0.1500 -0.6697
v  3.0080 -0.1500 -0.1502
v  3.0080 -0.1500 -0.5688
v  3.0080 -0.1500 0.1498
v  3.0213 -0.1500 0.6697
v  3.0603 -0.1500 0.7638
v  3.0603 -0.1500 -0.7638
v  3.1223 -0.1500 -0.8445
v  3.1223 -0.1500 0.8445
v  3.2030 -0.1500 0.9065
v  3.2971 -0.1500 0.9455
v  3.2531 -0.1500 0.6076
v  3.2681 -0.1500 0.6438
v  3.2920 -0.1500 0.6748
v  3.3230 -0.1500 0.6987
v  3.3980 -0.1500 0.9588
v  3.3592 -0.1500 0.7136
v  3.3980 -0.1500 0.7188
v  3.9955 -0.1500 0.9588
v  4.0343 -0.1500 -0.9536
v  4.0343 -0.1500 0.9536
v  4.0705 -0.1500 -0.9387
v  4.0705 -0.1500 0.9387
v  4.1016 -0.1500 -0.9148
v  4.1016 -0.1500 0.9148
v  4.1254 -0.1500 -0.8838
v  4.1254 -0.1500 0.8838
v  4.1404 -0.1500 -0.8476
v  4.1404 -0.1500 0.8476
v  4.1455 -0.1500 -0.8088
v  4.1455 -0.1500 0.8088
v  3.2480 -0.1500 0.1498
v  -2.2488 -0.1500 -0.9588
v  -4.1455 -0.1500 0.9585
v  -4.1455 -0.1500 -0.9588
v  -2.2488 -0.1500 0.9585
v  -2.1711 -0.1500 -0.9485
v  -2.1711 -0.1500 0.9482
v  -2.0988 -0.1500 0.9183
v  -2.0988 -0.1500 -0.9186
v  -2.0366 -0.1500 -0.8709
v  -2.0366 -0.1500 0.8706
v  -1.9890 -0.1500 -0.8088
v  -1.9890 -0.1500 0.8085
v  -1.9590 -0.1500 -0.7364
v  -1.9590 -0.1500 0.7361
v  -1.9488 -0.1500 -0.6588
v  -1.9488 -0.1500 -0.1502
v  3.0080 -0.1500 0.5688
v  -1.9488 -0.1500 0.1498
v  -1.9488 -0.1500 0.6585
v  -1.9488 0.1500 -0.1502
v  -1.9488 0.1500 -0.6588
v  3.0080 0.1500 -0.1502
v  3.0080 0.1500 -0.5688
v  3.0213 0.1500 -0.6697
v  3.0603 0.1500 -0.7638
v  3.1223 0.1500 -0.8445
v  3.2030 0.1500 -0.9065
v  3.2971 0.1500 -0.9455
v  3.3980 0.1500 -0.9588
v  3.9955 0.1500 -0.9588
v  4.0343 0.1500 -0.9536
v  4.0705 0.1500 -0.9387
v  4.1016 0.1500 -0.9148
v  4.1254 0.1500 -0.8838
v  4.1404 0.1500 -0.8476
v  4.1455 0.1500 -0.8088
v  4.1455 0.1500 0.8088
v  4.1404 0.1500 0.8476
v  4.1254 0.1500 0.8838
v  4.1016 0.1500 0.9148
v  4.0705 0.1500 0.9387
v  4.0343 0.1500 0.9536
v  3.9955 0.1500 0.9588
v  3.3980 0.1500 0.9588
v  3.2971 0.1500 0.9455
v  3.2030 0.1500 0.9065
v  3.1223 0.1500 0.8445
v  3.0603 0.1500 0.7638
v  3.0213 0.1500 0.6697
v  3.0080 0.1500 0.5688
v  3.0080 0.1500 0.1498
v  -1.9488 0.1500 0.1498
v  -1.9488 0.1500 0.6585
v  -1.9590 0.1500 0.7361
v  -1.9890 0.1500 0.8085
v  -2.0366 0.1500 0.8706
v  -2.0988 0.1500 0.9183
v  -2.1711 0.1500 0.9482
v  -2.2488 0.1500 0.9585
v  -2.2566 0.1500 0.8385
v  -2.2025 -0.0600 0.8313
v  -2.2566 -0.0600 0.8385
v  -2.2025 0.1500 0.8313
v  -2.1593 -0.0600 0.8134
v  -2.1593 0.1500 0.8134
v  -2.1222 -0.0600 0.7850
v  -2.1222 0.1500 0.7850
v  -2.0938 0.1500 0.7479
v  -2.0938 -0.0600 0.7479
v  -2.0759 0.1500 0.7048
v  -2.0759 -0.0600 0.7048
v  -2.0688 0.1500 0.6506
v  -2.0688 -0.0600 0.6506
v  -2.0688 0.1500 -0.6509
v  -2.0688 -0.0600 -0.6509
v  -2.0759 0.1500 -0.7051
v  -2.0759 -0.0600 -0.7051
v  -2.0938 0.1500 -0.7482
v  -2.0938 -0.0600 -0.7482
v  -2.1222 0.1500 -0.7853
v  -2.1222 -0.0600 -0.7853
v  -2.1593 -0.0600 -0.8137
v  -2.1593 0.1500 -0.8137
v  -2.2025 -0.0600 -0.8316
v  -2.2025 0.1500 -0.8316
v  -2.2566 -0.0600 -0.8388
v  -2.2566 0.1500 -0.8388
v  -2.2488 0.1500 -0.9588
v  -2.1711 0.1500 -0.9485
v  -2.0988 0.1500 -0.9186
v  -2.0366 0.1500 -0.8709
v  -1.9890 0.1500 -0.8088
v  -1.9590 0.1500 -0.7364
v  3.3980 0.1500 0.7188
v  3.9055 0.1500 0.7188
v  3.9055 0.1500 -0.0000
v  3.9055 0.1500 -0.7188
v  3.3980 0.1500 -0.7188
v  3.3592 0.1500 -0.7136
v  3.3230 0.1500 -0.6987
v  3.2920 0.1500 -0.6748
v  3.2681 0.1500 -0.6438
v  3.2531 0.1500 -0.6076
v  3.2480 0.1500 -0.5688
v  3.2480 0.1500 0.1498
v  3.2480 0.1500 0.5688
v  3.2531 0.1500 0.6076
v  3.2681 0.1500 0.6438
v  3.2920 0.1500 0.6748
v  3.3230 0.1500 0.6987
v  3.3592 0.1500 0.7136
v  -4.1455 -0.0600 -0.8388
v  -4.1455 -0.0600 0.8385
v  -4.1455 -0.0600 0.9585
v  -4.1455 -0.0600 -0.9588
# 162 vertices

vn 0.0000 -1.0000 -0.0000
vn 1.0000 0.0000 0.0000
vn 0.0000 0.0000 -1.0000
vn -1.0000 -0.0000 -0.0000
vn -0.9659 -0.0000 -0.2588
vn -0.9914 -0.0000 -0.1305
vn -0.8660 -0.0000 -0.5000
vn -0.7071 -0.0000 -0.7071
vn -0.5000 -0.0000 -0.8660
vn -0.2588 -0.0000 -0.9659
vn -0.1305 -0.0000 -0.9914
vn 0.1305 0.0000 -0.9914
vn 0.2588 0.0000 -0.9659
vn 0.5000 0.0000 -0.8660
vn 0.7071 0.0000 -0.7071
vn 0.8660 0.0000 -0.5000
vn 0.9659 0.0000 -0.2588
vn 0.9914 0.0000 -0.1305
vn 0.9914 0.0000 0.1305
vn 0.9659 0.0000 0.2588
vn 0.8660 0.0000 0.5000
vn 0.7071 0.0000 0.7071
vn 0.5000 0.0000 0.8660
vn 0.2588 0.0000 0.9659
vn 0.1305 0.0000 0.9914
vn 0.0000 0.0000 1.0000
vn -0.1305 -0.0000 0.9914
vn -0.2588 -0.0000 0.9659
vn -0.5000 -0.0000 0.8660
vn -0.7071 -0.0000 0.7071
vn -0.8660 -0.0000 0.5000
vn -0.9659 -0.0000 0.2588
vn -0.9914 -0.0000 0.1305
vn -0.0000 1.0000 -0.0000
vn -0.1100 0.9939 -0.0000
vn -0.1105 0.9939 0.0072
vn -0.1100 0.9939 -0.0072
# 37 vertex normals

vt 0.0000 0.0000 0.0000
# 1 texture coords

o Layer0_001
g Layer0_001
usemtl skp_front_default
s off
f 1/1/1 2/1/1 3/1/1 
f 2/1/1 1/1/1 4/1/1 
f 2/1/1 4/1/1 5/1/1 
f 5/1/1 4/1/1 6/1/1 
f 6/1/1 4/1/1 7/1/1 
f 7/1/1 4/1/1 8/1/1 
f 8/1/1 4/1/1 9/1/1 
f 8/1/1 9/1/1 10/1/1 
f 10/1/1 9/1/1 11/1/1 
f 11/1/1 9/1/1 12/1/1 
f 11/1/1 12/1/1 13/1/1 
f 13/1/1 12/1/1 14/1/1 
f 14/1/1 12/1/1 15/1/1 
f 16/1/1 17/1/1 18/1/1 
f 17/1/1 16/1/1 19/1/1 
f 19/1/1 16/1/1 20/1/1 
f 20/1/1 16/1/1 21/1/1 
f 21/1/1 16/1/1 22/1/1 
f 21/1/1 22/1/1 23/1/1 
f 21/1/1 23/1/1 24/1/1 
f 24/1/1 23/1/1 25/1/1 
f 25/1/1 23/1/1 1/1/1 
f 25/1/1 1/1/1 3/1/1 
f 25/1/1 3/1/1 26/1/1 
f 26/1/1 3/1/1 27/1/1 
f 26/1/1 27/1/1 28/1/1 
f 26/1/1 28/1/1 29/1/1 
f 26/1/1 29/1/1 30/1/1 
f 26/1/1 30/1/1 31/1/1 
f 31/1/1 30/1/1 32/1/1 
f 31/1/1 32/1/1 33/1/1 
f 31/1/1 33/1/1 15/1/1 
f 31/1/1 15/1/1 34/1/1 
f 34/1/1 15/1/1 12/1/1 
f 34/1/1 12/1/1 35/1/1 
f 34/1/1 35/1/1 36/1/1 
f 36/1/1 35/1/1 37/1/1 
f 36/1/1 37/1/1 38/1/1 
f 38/1/1 37/1/1 39/1/1 
f 38/1/1 39/1/1 40/1/1 
f 40/1/1 39/1/1 41/1/1 
f 40/1/1 41/1/1 42/1/1 
f 42/1/1 41/1/1 43/1/1 
f 42/1/1 43/1/1 44/1/1 
f 44/1/1 43/1/1 45/1/1 
f 44/1/1 45/1/1 46/1/1 
f 47/1/1 3/1/1 2/1/1 
f 48/1/1 49/1/1 50/1/1 
f 49/1/1 48/1/1 51/1/1 
f 51/1/1 48/1/1 52/1/1 
f 51/1/1 52/1/1 53/1/1 
f 53/1/1 52/1/1 54/1/1 
f 54/1/1 52/1/1 55/1/1 
f 54/1/1 55/1/1 56/1/1 
f 54/1/1 56/1/1 57/1/1 
f 57/1/1 56/1/1 58/1/1 
f 57/1/1 58/1/1 59/1/1 
f 59/1/1 58/1/1 60/1/1 
f 59/1/1 60/1/1 61/1/1 
f 61/1/1 60/1/1 62/1/1 
f 61/1/1 62/1/1 63/1/1 
f 20/1/1 64/1/1 19/1/1 
f 17/1/1 65/1/1 63/1/1 
f 65/1/1 17/1/1 19/1/1 
f 61/1/1 65/1/1 66/1/1 
f 65/1/1 61/1/1 63/1/1 
f 62/1/2 67/1/2 63/1/2 
f 67/1/2 62/1/2 68/1/2 
f 67/1/3 17/1/3 63/1/3 
f 17/1/3 67/1/3 69/1/3 
f 70/1/4 17/1/4 69/1/4 
f 17/1/4 70/1/4 18/1/4 
f 71/1/5 18/1/6 70/1/6 
f 18/1/6 71/1/5 16/1/5 
f 72/1/7 16/1/5 71/1/5 
f 16/1/5 72/1/7 22/1/7 
f 73/1/8 22/1/7 72/1/7 
f 22/1/7 73/1/8 23/1/8 
f 73/1/8 1/1/9 23/1/8 
f 1/1/9 73/1/8 74/1/9 
f 74/1/9 4/1/10 1/1/9 
f 4/1/10 74/1/9 75/1/10 
f 75/1/10 9/1/11 4/1/10 
f 9/1/11 75/1/10 76/1/11 
f 76/1/3 12/1/3 9/1/3 
f 12/1/3 76/1/3 77/1/3 
f 77/1/12 35/1/13 12/1/12 
f 35/1/13 77/1/12 78/1/13 
f 78/1/13 37/1/14 35/1/13 
f 37/1/14 78/1/13 79/1/14 
f 79/1/14 39/1/15 37/1/14 
f 39/1/15 79/1/14 80/1/15 
f 39/1/15 81/1/16 41/1/16 
f 81/1/16 39/1/15 80/1/15 
f 41/1/16 82/1/17 43/1/17 
f 82/1/17 41/1/16 81/1/16 
f 43/1/17 83/1/18 45/1/18 
f 83/1/18 43/1/17 82/1/17 
f 45/1/2 84/1/2 46/1/2 
f 84/1/2 45/1/2 83/1/2 
f 46/1/19 85/1/20 44/1/20 
f 85/1/20 46/1/19 84/1/19 
f 44/1/20 86/1/21 42/1/21 
f 86/1/21 44/1/20 85/1/20 
f 42/1/21 87/1/22 40/1/22 
f 87/1/22 42/1/21 86/1/21 
f 87/1/22 38/1/23 40/1/22 
f 38/1/23 87/1/22 88/1/23 
f 88/1/23 36/1/24 38/1/23 
f 36/1/24 88/1/23 89/1/24 
f 89/1/24 34/1/25 36/1/24 
f 34/1/25 89/1/24 90/1/25 
f 90/1/26 31/1/26 34/1/26 
f 31/1/26 90/1/26 91/1/26 
f 91/1/27 26/1/28 31/1/27 
f 26/1/28 91/1/27 92/1/28 
f 92/1/28 25/1/29 26/1/28 
f 25/1/29 92/1/28 93/1/29 
f 93/1/29 24/1/30 25/1/29 
f 24/1/30 93/1/29 94/1/30 
f 95/1/31 24/1/30 94/1/30 
f 24/1/30 95/1/31 21/1/31 
f 96/1/32 21/1/31 95/1/31 
f 21/1/31 96/1/32 20/1/32 
f 97/1/33 20/1/32 96/1/32 
f 20/1/32 97/1/33 64/1/33 
f 98/1/4 64/1/4 97/1/4 
f 64/1/4 98/1/4 19/1/4 
f 98/1/26 65/1/26 19/1/26 
f 65/1/26 98/1/26 99/1/26 
f 65/1/2 100/1/2 66/1/2 
f 100/1/2 65/1/2 99/1/2 
f 66/1/19 101/1/20 61/1/20 
f 101/1/20 66/1/19 100/1/19 
f 61/1/20 102/1/21 59/1/21 
f 102/1/21 61/1/20 101/1/20 
f 59/1/21 103/1/22 57/1/22 
f 103/1/22 59/1/21 102/1/21 
f 103/1/22 54/1/23 57/1/22 
f 54/1/23 103/1/22 104/1/23 
f 104/1/23 53/1/24 54/1/23 
f 53/1/24 104/1/23 105/1/24 
f 105/1/24 51/1/25 53/1/24 
f 51/1/25 105/1/24 106/1/25 
f 107/1/11 108/1/10 109/1/11 
f 108/1/10 107/1/11 110/1/10 
f 110/1/10 111/1/9 108/1/10 
f 111/1/9 110/1/10 112/1/9 
f 112/1/9 113/1/8 111/1/9 
f 113/1/8 112/1/9 114/1/8 
f 115/1/7 113/1/8 114/1/8 
f 113/1/8 115/1/7 116/1/7 
f 117/1/5 116/1/7 115/1/7 
f 116/1/7 117/1/5 118/1/5 
f 119/1/6 118/1/5 117/1/5 
f 118/1/5 119/1/6 120/1/6 
f 121/1/4 120/1/4 119/1/4 
f 120/1/4 121/1/4 122/1/4 
f 123/1/32 122/1/33 121/1/33 
f 122/1/33 123/1/32 124/1/32 
f 125/1/31 124/1/32 123/1/32 
f 124/1/32 125/1/31 126/1/31 
f 127/1/30 126/1/31 125/1/31 
f 126/1/31 127/1/30 128/1/30 
f 127/1/30 129/1/29 128/1/30 
f 129/1/29 127/1/30 130/1/29 
f 130/1/29 131/1/28 129/1/29 
f 131/1/28 130/1/29 132/1/28 
f 132/1/28 133/1/27 131/1/28 
f 133/1/27 132/1/28 134/1/27 
f 135/1/12 52/1/13 48/1/12 
f 52/1/13 135/1/12 136/1/13 
f 136/1/13 55/1/14 52/1/13 
f 55/1/14 136/1/13 137/1/14 
f 137/1/14 56/1/15 55/1/14 
f 56/1/15 137/1/14 138/1/15 
f 56/1/15 139/1/16 58/1/16 
f 139/1/16 56/1/15 138/1/15 
f 58/1/16 140/1/17 60/1/17 
f 140/1/17 58/1/16 139/1/16 
f 60/1/17 68/1/18 62/1/18 
f 68/1/18 60/1/17 140/1/17 
f 141/1/3 15/1/3 33/1/3 
f 15/1/3 141/1/3 142/1/3 
f 143/1/4 15/1/4 142/1/4 
f 15/1/4 143/1/4 14/1/4 
f 144/1/4 14/1/4 143/1/4 
f 14/1/4 144/1/4 13/1/4 
f 144/1/26 11/1/26 13/1/26 
f 11/1/26 144/1/26 145/1/26 
f 145/1/25 10/1/24 11/1/25 
f 10/1/24 145/1/25 146/1/24 
f 146/1/24 8/1/23 10/1/24 
f 8/1/23 146/1/24 147/1/23 
f 147/1/23 7/1/22 8/1/23 
f 7/1/22 147/1/23 148/1/22 
f 7/1/22 149/1/21 6/1/21 
f 149/1/21 7/1/22 148/1/22 
f 6/1/21 150/1/20 5/1/20 
f 150/1/20 6/1/21 149/1/21 
f 5/1/20 151/1/19 2/1/19 
f 151/1/19 5/1/20 150/1/20 
f 2/1/2 152/1/2 47/1/2 
f 152/1/2 2/1/2 151/1/2 
f 47/1/2 153/1/2 3/1/2 
f 153/1/2 47/1/2 152/1/2 
f 3/1/18 154/1/17 27/1/17 
f 154/1/17 3/1/18 153/1/18 
f 27/1/17 155/1/16 28/1/16 
f 155/1/16 27/1/17 154/1/17 
f 28/1/16 156/1/15 29/1/15 
f 156/1/15 28/1/16 155/1/16 
f 156/1/15 30/1/14 29/1/15 
f 30/1/14 156/1/15 157/1/14 
f 157/1/14 32/1/13 30/1/14 
f 32/1/13 157/1/14 158/1/13 
f 158/1/13 33/1/12 32/1/13 
f 33/1/12 158/1/13 141/1/12 
f 109/1/34 159/1/34 160/1/34 
f 159/1/34 109/1/34 133/1/34 
f 133/1/34 109/1/34 131/1/34 
f 131/1/34 109/1/34 108/1/34 
f 131/1/34 108/1/34 111/1/34 
f 131/1/34 111/1/34 129/1/34 
f 129/1/34 111/1/34 113/1/34 
f 129/1/34 113/1/34 128/1/34 
f 128/1/34 113/1/34 126/1/34 
f 126/1/34 113/1/34 116/1/34 
f 126/1/34 116/1/34 118/1/34 
f 126/1/34 118/1/34 124/1/34 
f 124/1/34 118/1/34 120/1/34 
f 124/1/34 120/1/34 122/1/34 
f 96/1/34 98/1/34 97/1/34 
f 98/1/34 96/1/34 69/1/34 
f 69/1/34 96/1/34 70/1/34 
f 70/1/34 96/1/34 71/1/34 
f 71/1/34 96/1/34 95/1/34 
f 71/1/34 95/1/34 72/1/34 
f 72/1/34 95/1/34 94/1/34 
f 72/1/34 94/1/34 73/1/34 
f 73/1/34 94/1/34 93/1/34 
f 73/1/34 93/1/34 74/1/34 
f 74/1/34 93/1/34 153/1/34 
f 153/1/34 93/1/34 92/1/34 
f 153/1/34 92/1/34 154/1/34 
f 154/1/34 92/1/34 155/1/34 
f 155/1/34 92/1/34 156/1/34 
f 156/1/34 92/1/34 157/1/34 
f 157/1/34 92/1/34 91/1/34 
f 157/1/34 91/1/34 158/1/34 
f 158/1/34 91/1/34 141/1/34 
f 141/1/34 91/1/34 90/1/34 
f 141/1/34 90/1/34 142/1/34 
f 142/1/34 90/1/34 143/1/34 
f 143/1/34 90/1/34 144/1/34 
f 74/1/34 151/1/34 75/1/34 
f 151/1/34 74/1/34 153/1/34 
f 151/1/34 153/1/34 152/1/34 
f 75/1/34 151/1/34 150/1/34 
f 75/1/34 150/1/34 149/1/34 
f 75/1/34 149/1/34 148/1/34 
f 75/1/34 148/1/34 147/1/34 
f 75/1/34 147/1/34 76/1/34 
f 76/1/34 147/1/34 146/1/34 
f 76/1/34 146/1/34 145/1/34 
f 76/1/34 145/1/34 144/1/34 
f 76/1/34 144/1/34 77/1/34 
f 77/1/34 144/1/34 90/1/34 
f 77/1/34 90/1/34 89/1/34 
f 77/1/34 89/1/34 78/1/34 
f 78/1/34 89/1/34 88/1/34 
f 78/1/34 88/1/34 79/1/34 
f 79/1/34 88/1/34 87/1/34 
f 79/1/34 87/1/34 80/1/34 
f 80/1/34 87/1/34 86/1/34 
f 80/1/34 86/1/34 81/1/34 
f 81/1/34 86/1/34 85/1/34 
f 81/1/34 85/1/34 82/1/34 
f 82/1/34 85/1/34 84/1/34 
f 82/1/34 84/1/34 83/1/34 
f 106/1/34 110/1/34 107/1/34 
f 110/1/34 106/1/34 105/1/34 
f 110/1/34 105/1/34 112/1/34 
f 112/1/34 105/1/34 104/1/34 
f 112/1/34 104/1/34 114/1/34 
f 114/1/34 104/1/34 115/1/34 
f 115/1/34 104/1/34 103/1/34 
f 115/1/34 103/1/34 117/1/34 
f 117/1/34 103/1/34 119/1/34 
f 119/1/34 103/1/34 121/1/34 
f 132/1/34 135/1/34 134/1/34 
f 135/1/34 132/1/34 136/1/34 
f 136/1/34 132/1/34 130/1/34 
f 136/1/34 130/1/34 137/1/34 
f 137/1/34 130/1/34 127/1/34 
f 137/1/34 127/1/34 125/1/34 
f 137/1/34 125/1/34 138/1/34 
f 138/1/34 125/1/34 123/1/34 
f 138/1/34 123/1/34 121/1/34 
f 138/1/34 121/1/34 103/1/34 
f 138/1/34 103/1/34 102/1/34 
f 138/1/34 102/1/34 139/1/34 
f 139/1/34 102/1/34 101/1/34 
f 139/1/34 101/1/34 140/1/34 
f 140/1/34 101/1/34 100/1/34 
f 140/1/34 100/1/34 99/1/34 
f 98/1/34 67/1/34 99/1/34 
f 67/1/34 98/1/34 69/1/34 
f 140/1/34 67/1/34 68/1/34 
f 67/1/34 140/1/34 99/1/34 
f 106/1/26 49/1/26 51/1/26 
f 49/1/26 106/1/26 161/1/26 
f 106/1/35 160/1/35 161/1/35 
f 106/1/36 107/1/36 160/1/36 
f 160/1/4 49/1/4 161/1/4 
f 49/1/4 160/1/4 50/1/4 
f 50/1/4 160/1/4 159/1/4 
f 50/1/4 159/1/4 162/1/4 
f 107/1/3 109/1/3 160/1/3 
f 162/1/3 48/1/3 50/1/3 
f 48/1/3 162/1/3 135/1/3 
f 134/1/26 159/1/26 133/1/26 
f 134/1/35 162/1/35 159/1/35 
f 135/1/37 162/1/37 134/1/37 
# 324 faces

