# 3ds Max Wavefront OBJ Exporter v0.97b - (c)2007 guruware
# File Created: 07.12.2018 02:16:23

mtllib coconut.mtl

#
# object Coconut
#

v  43.2583 -32.9887 0.0001
v  21.6294 -32.9887 -37.4628
v  27.1401 2.0268 -47.0080
v  54.2800 2.0268 0.0001
v  -21.6294 -32.9887 -37.4628
v  -27.1401 2.0268 -47.0079
v  -43.2583 -32.9887 0.0001
v  -54.2800 2.0268 0.0001
v  -21.6294 -32.9887 37.4630
v  -27.1401 2.0269 47.0080
v  21.6294 -32.9887 37.4630
v  27.1401 2.0269 47.0080
v  0.0000 -48.9723 0.0001
v  25.0181 48.9722 -43.3322
v  50.0356 46.0618 -0.0001
v  -25.0176 43.2279 -43.3322
v  -50.0356 41.4452 -0.0001
v  25.0181 41.4452 43.3322
v  -35.3455 37.5147 25.4443
v  -3.6724 41.4452 43.3322
v  -26.1934 19.6138 45.3681
v  22.3425 2.9214 -38.6986
v  17.8706 -26.9600 -30.9523
v  35.7407 -26.9600 0.0001
v  44.6853 2.9215 0.0001
v  -22.3425 2.9214 -38.6986
v  -17.8706 -26.9600 -30.9523
v  -44.6853 2.9215 0.0001
v  -35.7407 -26.9600 0.0001
v  -22.3425 2.9215 38.6987
v  -17.8706 -26.9599 30.9525
v  22.3425 2.9215 38.6987
v  17.8706 -26.9599 30.9525
v  0.0000 -39.3358 0.0001
v  40.4546 44.1914 -0.0001
v  20.2273 47.1018 -35.0349
v  -20.2273 41.3575 -35.0349
v  -40.4546 39.5748 -0.0001
v  20.2273 39.5748 35.0347
v  -27.0361 35.7812 20.6469
v  -21.3872 23.8288 37.0796
v  -3.6724 39.7117 33.7374
# 42 vertices

vn 0.7801 -0.6256 0.0000
vn 0.3901 -0.6256 -0.6756
vn 0.4964 -0.0998 -0.8623
vn 0.9951 -0.0989 0.0006
vn -0.3901 -0.6256 -0.6756
vn -0.4982 -0.0946 -0.8619
vn -0.7801 -0.6256 0.0000
vn -0.9958 -0.0913 0.0013
vn -0.3901 -0.6256 0.6756
vn -0.4992 -0.0910 0.8617
vn 0.3901 -0.6256 0.6756
vn 0.4968 -0.0940 0.8628
vn 0.0000 -1.0000 0.0000
vn 0.5041 0.0915 -0.8588
vn 0.9949 0.0982 -0.0227
vn -0.4781 0.0993 -0.8727
vn -0.9941 0.1059 -0.0242
vn 0.5069 0.1071 0.8554
vn -0.8606 0.0976 0.4998
vn 0.0000 0.0928 0.9957
vn -0.4958 0.1071 0.8618
vn -0.4966 0.0905 0.8632
vn -0.3900 0.6259 0.6754
vn -0.7799 0.6259 0.0000
vn -0.9960 0.0897 -0.0007
vn 0.4987 0.0847 0.8626
vn 0.3900 0.6259 0.6754
vn 0.9972 0.0747 -0.0067
vn 0.7799 0.6259 -0.0000
vn 0.5007 0.0695 -0.8628
vn 0.3900 0.6259 -0.6754
vn -0.4931 0.0783 -0.8664
vn -0.3900 0.6259 -0.6754
vn 0.0000 1.0000 -0.0000
vn -0.9941 -0.1048 0.0275
vn -0.5054 -0.0971 0.8574
vn 0.4739 -0.1053 0.8743
vn 0.9936 -0.1132 0.0029
vn -0.4843 -0.1147 -0.8674
vn 0.8593 -0.1153 -0.4983
vn 0.4891 -0.0895 -0.8676
vn 0.0022 -0.1094 -0.9940
vn -0.1860 0.9785 0.0893
vn -0.1342 0.9788 0.1545
vn -0.1392 0.9797 0.1441
vn -0.1956 0.9766 0.0891
vn 0.0210 0.9771 0.2117
vn 0.0195 0.9791 0.2023
vn 0.1946 0.9759 0.0987
vn 0.1888 0.9768 0.1010
vn -0.1424 0.9813 -0.1299
vn -0.1455 0.9805 -0.1320
vn 0.2179 0.9756 0.0249
vn 0.2133 0.9765 0.0303
vn 0.2905 0.7743 0.5622
vn 0.4180 0.7970 0.4360
vn -0.3626 0.9161 -0.1708
vn -0.3705 0.9157 -0.1554
vn -0.6797 0.7316 -0.0519
vn -0.6685 0.7436 -0.0095
# 60 vertex normals

vt 0.5112 0.7220 0.0000
vt 0.5579 0.7220 0.0000
vt 0.5639 0.6889 0.0000
vt 0.5052 0.6889 0.0000
vt 0.5346 0.7354 0.0000
vt 0.5613 0.6481 0.0000
vt 0.5079 0.6481 0.0000
vt 0.5078 0.6481 0.0000
vt 0.5612 0.6481 0.0000
vt 0.5299 0.6481 0.0000
vt 0.5307 0.6481 0.0000
vt 0.5064 0.6707 0.0000
vt 0.4267 0.9699 0.0000
vt 0.4296 0.9699 0.0000
vt 0.4132 0.9699 0.0000
vt 0.4160 0.9699 0.0000
vt 0.4130 0.9699 0.0000
vt 0.4129 0.9699 0.0000
vt 0.4159 0.9699 0.0000
vt 0.4131 0.9699 0.0000
vt 0.4632 0.9699 0.0000
vt 0.3043 0.9924 0.0000
# 22 texture coords

o Coconut
g Coconut
usemtl Orange
s 1
f 1/1/1 2/2/2 3/3/3 
f 3/3/3 4/4/4 1/1/1 
f 2/2/2 5/1/5 6/4/6 
f 6/4/6 3/3/3 2/2/2 
f 5/1/5 7/2/7 8/3/8 
f 8/3/8 6/4/6 5/1/5 
f 7/2/7 9/1/9 10/4/10 
f 10/4/10 8/3/8 7/2/7 
f 9/1/9 11/2/11 12/3/12 
f 12/3/12 10/4/10 9/1/9 
f 11/2/11 1/1/1 4/4/4 
f 4/4/4 12/3/12 11/2/11 
f 1/1/1 13/5/13 2/2/2 
f 2/2/2 13/5/13 5/1/5 
f 5/1/5 13/5/13 7/2/7 
f 7/2/7 13/5/13 9/1/9 
f 9/1/9 13/5/13 11/2/11 
f 11/2/11 13/5/13 1/1/1 
f 14/6/14 15/7/15 4/4/4 
f 4/4/4 3/3/3 14/6/14 
f 16/8/16 14/9/14 3/3/3 
f 3/3/3 6/4/6 16/8/16 
f 17/6/17 16/7/16 6/4/6 
f 6/4/6 8/3/8 17/6/17 
f 15/8/15 18/9/18 12/3/12 
f 12/3/12 4/4/4 15/8/15 
f 8/3/8 19/10/19 17/9/17 
f 10/4/10 12/3/12 20/11/20 
f 20/11/20 21/12/21 10/4/10 
f 22/13/22 23/14/23 24/14/24 
f 24/14/24 25/13/25 22/13/22 
f 26/13/26 27/14/27 23/14/23 
f 23/14/23 22/13/22 26/13/26 
f 28/13/28 29/14/29 27/14/27 
f 27/14/27 26/13/26 28/13/28 
f 30/13/30 31/14/31 29/14/29 
f 29/14/29 28/13/28 30/13/30 
f 32/13/32 33/14/33 31/14/31 
f 31/14/31 30/13/30 32/13/32 
f 25/13/25 24/14/24 33/14/33 
f 33/14/33 32/13/32 25/13/25 
f 23/14/23 34/15/34 24/14/24 
f 27/14/27 34/16/34 23/14/23 
f 29/14/29 34/17/34 27/14/27 
f 31/14/31 34/18/34 29/14/29 
f 33/14/33 34/19/34 31/14/31 
f 24/14/24 34/20/34 33/14/33 
f 25/13/25 35/21/35 36/21/36 
f 36/21/36 22/13/22 25/13/25 
f 22/13/22 36/21/36 37/21/37 
f 37/21/37 26/13/26 22/13/22 
f 26/13/26 37/21/37 38/21/38 
f 38/21/38 28/13/28 26/13/26 
f 32/13/32 39/21/39 35/21/35 
f 35/21/35 25/13/25 32/13/32 
f 30/13/30 28/13/28 40/21/40 
f 40/21/40 41/21/41 30/13/30 
f 39/21/39 32/13/32 42/21/42 
s 2
f 15/22/43 14/22/44 36/22/45 
f 36/22/45 35/22/46 15/22/43 
f 14/22/44 16/22/47 37/22/48 
f 37/22/48 36/22/45 14/22/44 
f 16/22/47 17/22/49 38/22/50 
f 38/22/50 37/22/48 16/22/47 
f 18/22/51 15/22/43 35/22/46 
f 35/22/46 39/22/52 18/22/51 
f 17/22/49 19/22/53 40/22/54 
f 40/22/54 38/22/50 17/22/49 
s off
f 19/22/55 21/22/55 41/22/55 
f 41/22/56 40/22/56 19/22/56 
s 2
f 20/22/57 18/22/51 39/22/52 
f 39/22/52 42/22/58 20/22/57 
f 21/22/59 20/22/57 42/22/58 
f 42/22/58 41/22/60 21/22/59 
s 1
f 10/4/10 21/12/21 19/10/19 
f 19/10/19 8/3/8 10/4/10 
f 12/3/12 18/6/18 20/11/20 
f 28/13/28 38/21/38 40/21/40 
f 30/13/30 41/21/41 42/21/42 
f 42/21/42 32/13/32 30/13/30 
# 80 faces

